{
  "accessors": [
    {
      "bufferView": 2,
      "componentType": 5126,
      "count": 1854,
      "max": [
        0.035762839019298553,
        0.07567299902439117,
        0.0056892274878919125
      ],
      "min": [
        -0.03632416948676109,
        -0.07659138739109039,
        -0.0034166036639362574
      ],
      "type": "VEC3"
    },
    {
      "bufferView": 2,
      "byteOffset": 22248,
      "componentType": 5126,
      "count": 1854,
      "max": [
        0.9999277591705322,
        1.0,
        1.0
      ],
      "min": [
        -0.9999679327011108,
        -1.0,
        -1.0
      ],
      "type": "VEC3"
    },
    {
      "bufferView": 1,
      "componentType": 5126,
      "count": 1854,
      "max": [
        1.114622950553894,
        1.1053001880645752
      ],
      "min": [
        -0.005408475175499916,
        0.0
      ],
      "type": "VEC2"
    },
    {
      "bufferView": 0,
      "componentType": 5125,
      "count": 5052,
      "type": "SCALAR"
    },
    {
      "bufferView": 2,
      "byteOffset": 44496,
      "componentType": 5126,
      "count": 723,
      "max": [
        0.03426095470786095,
        0.07423020154237747,
        0.0038938610814511776
      ],
      "min": [
        -0.03395264968276024,
        -0.07655240595340729,
        -0.0036906134337186813
      ],
      "type": "VEC3"
    },
    {
      "bufferView": 2,
      "byteOffset": 53172,
      "componentType": 5126,
      "count": 723,
      "max": [
        1.0,
        0.6485724449157715,
        0.9823921918869019
      ],
      "min": [
        -1.0,
        -1.0,
        -0.999108612537384
      ],
      "type": "VEC3"
    },
    {
      "bufferView": 1,
      "byteOffset": 14832,
      "componentType": 5126,
      "count": 723,
      "max": [
        1.0680346488952637,
        0.9821323156356812
      ],
      "min": [
        0.0,
        0.0
      ],
      "type": "VEC2"
    },
    {
      "bufferView": 0,
      "byteOffset": 20208,
      "componentType": 5125,
      "count": 1776,
      "type": "SCALAR"
    },
    {
      "bufferView": 2,
      "byteOffset": 61848,
      "componentType": 5126,
      "count": 235,
      "max": [
        0.03544766828417778,
        0.07490560412406921,
        0.004168640356510878
      ],
      "min": [
        -0.035154953598976135,
        -0.07579025626182556,
        0.0017602363368496299
      ],
      "type": "VEC3"
    },
    {
      "bufferView": 2,
      "byteOffset": 64668,
      "componentType": 5126,
      "count": 235,
      "max": [
        0.8383305668830872,
        0.7743488550186157,
        1.0
      ],
      "min": [
        -0.7537916302680969,
        -0.8000945448875427,
        0.5451623797416687
      ],
      "type": "VEC3"
    },
    {
      "bufferView": 1,
      "byteOffset": 20616,
      "componentType": 5126,
      "count": 235,
      "max": [
        1.1056630611419678,
        1.1150009632110596
      ],
      "min": [
        0.002914835698902607,
        0.0069509102031588554
      ],
      "type": "VEC2"
    },
    {
      "bufferView": 0,
      "byteOffset": 27312,
      "componentType": 5125,
      "count": 741,
      "type": "SCALAR"
    },
    {
      "bufferView": 2,
      "byteOffset": 67488,
      "componentType": 5126,
      "count": 292,
      "max": [
        0.035762835294008255,
        0.07567299902439117,
        0.0028690160252153873
      ],
      "min": [
        -0.03540712967514992,
        -0.07659138739109039,
        -0.0034166036639362574
      ],
      "type": "VEC3"
    },
    {
      "bufferView": 2,
      "byteOffset": 70992,
      "componentType": 5126,
      "count": 292,
      "max": [
        0.9999814033508301,
        0.9998173117637634,
        1.0
      ],
      "min": [
        -0.9999814033508301,
        -1.0,
        -1.0
      ],
      "type": "VEC3"
    },
    {
      "bufferView": 1,
      "byteOffset": 22496,
      "componentType": 5126,
      "count": 292,
      "max": [
        1.067439079284668,
        1.0438913106918335
      ],
      "min": [
        -0.005408475175499916,
        0.09515126049518585
      ],
      "type": "VEC2"
    },
    {
      "bufferView": 0,
      "byteOffset": 30276,
      "componentType": 5125,
      "count": 600,
      "type": "SCALAR"
    },
    {
      "bufferView": 2,
      "byteOffset": 74496,
      "componentType": 5126,
      "count": 268,
      "max": [
        0.004928416106849909,
        0.004922577645629644,
        0.0003080744936596602
      ],
      "min": [
        -0.004930532071739435,
        -0.0049363705329597,
        1.0947716191367363e-06
      ],
      "type": "VEC3"
    },
    {
      "bufferView": 2,
      "byteOffset": 77712,
      "componentType": 5126,
      "count": 268,
      "max": [
        1.0,
        1.0,
        0.9999942779541016
      ],
      "min": [
        -1.0,
        -1.0,
        0.0
      ],
      "type": "VEC3"
    },
    {
      "bufferView": 1,
      "byteOffset": 24832,
      "componentType": 5126,
      "count": 268,
      "max": [
        0.0,
        0.0
      ],
      "min": [
        0.0,
        0.0
      ],
      "type": "VEC2"
    },
    {
      "bufferView": 0,
      "byteOffset": 32676,
      "componentType": 5125,
      "count": 786,
      "type": "SCALAR"
    },
    {
      "bufferView": 2,
      "byteOffset": 80928,
      "componentType": 5126,
      "count": 832,
      "max": [
        0.003764054039493203,
        0.003758210688829422,
        0.00023894287005532533
      ],
      "min": [
        -0.003766164882108569,
        -0.003772008465602994,
        -0.000764694472309202
      ],
      "type": "VEC3"
    },
    {
      "bufferView": 2,
      "byteOffset": 90912,
      "componentType": 5126,
      "count": 832,
      "max": [
        1.0,
        1.0,
        1.0
      ],
      "min": [
        -1.0,
        -1.0,
        0.0
      ],
      "type": "VEC3"
    },
    {
      "bufferView": 1,
      "byteOffset": 26976,
      "componentType": 5126,
      "count": 832,
      "max": [
        0.0,
        0.0
      ],
      "min": [
        0.0,
        0.0
      ],
      "type": "VEC2"
    },
    {
      "bufferView": 0,
      "byteOffset": 35820,
      "componentType": 5125,
      "count": 2712,
      "type": "SCALAR"
    },
    {
      "bufferView": 2,
      "byteOffset": 100896,
      "componentType": 5126,
      "count": 32,
      "max": [
        0.004928416106849909,
        0.004922577645629644,
        0.0003080744936596602
      ],
      "min": [
        -0.004930532071739435,
        -0.0049363705329597,
        0.0003080744936596602
      ],
      "type": "VEC3"
    },
    {
      "bufferView": 2,
      "byteOffset": 101280,
      "componentType": 5126,
      "count": 32,
      "max": [
        4.683852750098083e-10,
        0.0,
        1.0
      ],
      "min": [
        4.683852750098083e-10,
        0.0,
        1.0
      ],
      "type": "VEC3"
    },
    {
      "bufferView": 1,
      "byteOffset": 33632,
      "componentType": 5126,
      "count": 32,
      "max": [
        0.0,
        0.0
      ],
      "min": [
        0.0,
        0.0
      ],
      "type": "VEC2"
    },
    {
      "bufferView": 0,
      "byteOffset": 46668,
      "componentType": 5125,
      "count": 90,
      "type": "SCALAR"
    },
    {
      "bufferView": 2,
      "byteOffset": 101664,
      "componentType": 5126,
      "count": 257,
      "max": [
        0.002449014224112034,
        0.0024624711368232965,
        0.00027945119654759765
      ],
      "min": [
        -0.0024483841843903065,
        -0.0024349226150661707,
        -0.0007681974093429744
      ],
      "type": "VEC3"
    },
    {
      "bufferView": 2,
      "byteOffset": 104748,
      "componentType": 5126,
      "count": 257,
      "max": [
        0.9745091199874878,
        0.974513053894043,
        -0.22433114051818848
      ],
      "min": [
        -0.9745104312896729,
        -0.9745119214057922,
        -1.0
      ],
      "type": "VEC3"
    },
    {
      "bufferView": 1,
      "byteOffset": 33888,
      "componentType": 5126,
      "count": 257,
      "max": [
        0.9481523633003235,
        0.9254963397979736
      ],
      "min": [
        0.059936683624982834,
        -0.07431519776582718
      ],
      "type": "VEC2"
    },
    {
      "bufferView": 0,
      "byteOffset": 47028,
      "componentType": 5125,
      "count": 1440,
      "type": "SCALAR"
    },
    {
      "bufferView": 2,
      "byteOffset": 107832,
      "componentType": 5126,
      "count": 264,
      "max": [
        0.004928416106849909,
        0.004923343658447266,
        0.0003080739115830511
      ],
      "min": [
        -0.004930532071739435,
        -0.004935604520142078,
        1.0941839718725532e-06
      ],
      "type": "VEC3"
    },
    {
      "bufferView": 2,
      "byteOffset": 111000,
      "componentType": 5126,
      "count": 264,
      "max": [
        1.0,
        1.0,
        0.9999942779541016
      ],
      "min": [
        -1.0,
        -1.0,
        0.0
      ],
      "type": "VEC3"
    },
    {
      "bufferView": 1,
      "byteOffset": 35944,
      "componentType": 5126,
      "count": 264,
      "max": [
        0.0,
        0.0
      ],
      "min": [
        0.0,
        0.0
      ],
      "type": "VEC2"
    },
    {
      "bufferView": 0,
      "byteOffset": 52788,
      "componentType": 5125,
      "count": 786,
      "type": "SCALAR"
    },
    {
      "bufferView": 2,
      "byteOffset": 114168,
      "componentType": 5126,
      "count": 832,
      "max": [
        0.003764054039493203,
        0.003758976934477687,
        0.00023894170590210706
      ],
      "min": [
        -0.003766164882108569,
        -0.003771242219954729,
        -0.0007646950543858111
      ],
      "type": "VEC3"
    },
    {
      "bufferView": 2,
      "byteOffset": 124152,
      "componentType": 5126,
      "count": 832,
      "max": [
        1.0,
        1.0,
        1.0
      ],
      "min": [
        -1.0,
        -1.0,
        0.0
      ],
      "type": "VEC3"
    },
    {
      "bufferView": 1,
      "byteOffset": 38056,
      "componentType": 5126,
      "count": 832,
      "max": [
        0.0,
        0.0
      ],
      "min": [
        0.0,
        0.0
      ],
      "type": "VEC2"
    },
    {
      "bufferView": 0,
      "byteOffset": 55932,
      "componentType": 5125,
      "count": 2712,
      "type": "SCALAR"
    },
    {
      "bufferView": 2,
      "byteOffset": 134136,
      "componentType": 5126,
      "count": 32,
      "max": [
        0.004928416106849909,
        0.004923343658447266,
        0.0003080739115830511
      ],
      "min": [
        -0.004930532071739435,
        -0.004935604520142078,
        0.0003080739115830511
      ],
      "type": "VEC3"
    },
    {
      "bufferView": 2,
      "byteOffset": 134520,
      "componentType": 5126,
      "count": 32,
      "max": [
        2.060895454292222e-09,
        0.0,
        1.0
      ],
      "min": [
        2.060895454292222e-09,
        0.0,
        1.0
      ],
      "type": "VEC3"
    },
    {
      "bufferView": 1,
      "byteOffset": 44712,
      "componentType": 5126,
      "count": 32,
      "max": [
        0.0,
        0.0
      ],
      "min": [
        0.0,
        0.0
      ],
      "type": "VEC2"
    },
    {
      "bufferView": 0,
      "byteOffset": 66780,
      "componentType": 5125,
      "count": 90,
      "type": "SCALAR"
    },
    {
      "bufferView": 2,
      "byteOffset": 134904,
      "componentType": 5126,
      "count": 257,
      "max": [
        0.002449014224112034,
        0.0024632373824715614,
        0.0002794500032905489
      ],
      "min": [
        -0.0024483841843903065,
        -0.002434161026030779,
        -0.0007681979914195836
      ],
      "type": "VEC3"
    },
    {
      "bufferView": 2,
      "byteOffset": 137988,
      "componentType": 5126,
      "count": 257,
      "max": [
        0.9745091795921326,
        0.9745103120803833,
        -0.22433024644851685
      ],
      "min": [
        -0.9745104312896729,
        -0.9745128154754639,
        -1.0
      ],
      "type": "VEC3"
    },
    {
      "bufferView": 1,
      "byteOffset": 44968,
      "componentType": 5126,
      "count": 257,
      "max": [
        0.9481523633003235,
        0.9254963397979736
      ],
      "min": [
        0.059936683624982834,
        -0.07431519776582718
      ],
      "type": "VEC2"
    },
    {
      "bufferView": 0,
      "byteOffset": 67140,
      "componentType": 5125,
      "count": 1440,
      "type": "SCALAR"
    },
    {
      "bufferView": 2,
      "byteOffset": 141072,
      "componentType": 5126,
      "count": 276,
      "max": [
        0.001877606613561511,
        0.0018753840122371912,
        0.00010793816909426823
      ],
      "min": [
        -0.0018779323436319828,
        -0.001880154712125659,
        6.577312433364568e-06
      ],
      "type": "VEC3"
    },
    {
      "bufferView": 2,
      "byteOffset": 144384,
      "componentType": 5126,
      "count": 276,
      "max": [
        1.0,
        1.0,
        0.9999957084655762
      ],
      "min": [
        -1.0,
        -1.0,
        0.0
      ],
      "type": "VEC3"
    },
    {
      "bufferView": 1,
      "byteOffset": 47024,
      "componentType": 5126,
      "count": 276,
      "max": [
        0.0,
        0.0
      ],
      "min": [
        0.0,
        0.0
      ],
      "type": "VEC2"
    },
    {
      "bufferView": 0,
      "byteOffset": 72900,
      "componentType": 5125,
      "count": 786,
      "type": "SCALAR"
    },
    {
      "bufferView": 2,
      "byteOffset": 147696,
      "componentType": 5126,
      "count": 867,
      "max": [
        0.0014340695925056934,
        0.0014318434987217188,
        8.51119912113063e-05
      ],
      "min": [
        -0.0014343933435156941,
        -0.001436621299944818,
        -0.0002462777483742684
      ],
      "type": "VEC3"
    },
    {
      "bufferView": 2,
      "byteOffset": 158100,
      "componentType": 5126,
      "count": 867,
      "max": [
        1.0,
        1.0,
        1.0
      ],
      "min": [
        -1.0,
        -1.0,
        -1.0
      ],
      "type": "VEC3"
    },
    {
      "bufferView": 1,
      "byteOffset": 49232,
      "componentType": 5126,
      "count": 867,
      "max": [
        0.0,
        0.0
      ],
      "min": [
        0.0,
        0.0
      ],
      "type": "VEC2"
    },
    {
      "bufferView": 0,
      "byteOffset": 76044,
      "componentType": 5125,
      "count": 2712,
      "type": "SCALAR"
    },
    {
      "bufferView": 2,
      "byteOffset": 168504,
      "componentType": 5126,
      "count": 32,
      "max": [
        0.001877606613561511,
        0.0018753840122371912,
        0.00010793816909426823
      ],
      "min": [
        -0.0018779323436319828,
        -0.001880154712125659,
        0.00010793772526085377
      ],
      "type": "VEC3"
    },
    {
      "bufferView": 2,
      "byteOffset": 168888,
      "componentType": 5126,
      "count": 32,
      "max": [
        6.665612062306536e-08,
        1.228007420195354e-07,
        1.0
      ],
      "min": [
        6.665612062306536e-08,
        1.228007420195354e-07,
        1.0
      ],
      "type": "VEC3"
    },
    {
      "bufferView": 1,
      "byteOffset": 56168,
      "componentType": 5126,
      "count": 32,
      "max": [
        0.0,
        0.0
      ],
      "min": [
        0.0,
        0.0
      ],
      "type": "VEC2"
    },
    {
      "bufferView": 0,
      "byteOffset": 86892,
      "componentType": 5125,
      "count": 90,
      "type": "SCALAR"
    },
    {
      "bufferView": 2,
      "byteOffset": 169272,
      "componentType": 5126,
      "count": 257,
      "max": [
        0.0009331353940069675,
        0.000938261509872973,
        9.848688205238432e-05
      ],
      "min": [
        -0.0009324148995801806,
        -0.000927287561353296,
        -0.0002474345965310931
      ],
      "type": "VEC3"
    },
    {
      "bufferView": 2,
      "byteOffset": 172356,
      "componentType": 5126,
      "count": 257,
      "max": [
        0.9664950370788574,
        0.9664978384971619,
        1.0
      ],
      "min": [
        -0.9664947390556335,
        -0.9664977788925171,
        0.25666311383247375
      ],
      "type": "VEC3"
    },
    {
      "bufferView": 1,
      "byteOffset": 56424,
      "componentType": 5126,
      "count": 257,
      "max": [
        0.9481523633003235,
        0.9254963397979736
      ],
      "min": [
        0.059936683624982834,
        -0.07431519776582718
      ],
      "type": "VEC2"
    },
    {
      "bufferView": 0,
      "byteOffset": 87252,
      "componentType": 5125,
      "count": 1440,
      "type": "SCALAR"
    },
    {
      "bufferView": 2,
      "byteOffset": 175440,
      "componentType": 5126,
      "count": 267,
      "max": [
        0.004928416106849909,
        0.004922568332403898,
        0.00030807507573626935
      ],
      "min": [
        -0.004930532071739435,
        -0.004936377517879009,
        1.0953592664009193e-06
      ],
      "type": "VEC3"
    },
    {
      "bufferView": 2,
      "byteOffset": 178644,
      "componentType": 5126,
      "count": 267,
      "max": [
        1.0,
        1.0,
        0.9999942779541016
      ],
      "min": [
        -1.0,
        -1.0,
        0.0
      ],
      "type": "VEC3"
    },
    {
      "bufferView": 1,
      "byteOffset": 58480,
      "componentType": 5126,
      "count": 267,
      "max": [
        0.0,
        0.0
      ],
      "min": [
        0.0,
        0.0
      ],
      "type": "VEC2"
    },
    {
      "bufferView": 0,
      "byteOffset": 93012,
      "componentType": 5125,
      "count": 786,
      "type": "SCALAR"
    },
    {
      "bufferView": 2,
      "byteOffset": 181848,
      "componentType": 5126,
      "count": 832,
      "max": [
        0.003764054039493203,
        0.003758201142773032,
        0.00023894287005532533
      ],
      "min": [
        -0.003766164882108569,
        -0.0037720154505223036,
        -0.0007646938902325928
      ],
      "type": "VEC3"
    },
    {
      "bufferView": 2,
      "byteOffset": 191832,
      "componentType": 5126,
      "count": 832,
      "max": [
        1.0,
        1.0,
        1.0
      ],
      "min": [
        -1.0,
        -1.0,
        0.0
      ],
      "type": "VEC3"
    },
    {
      "bufferView": 1,
      "byteOffset": 60616,
      "componentType": 5126,
      "count": 832,
      "max": [
        0.0,
        0.0
      ],
      "min": [
        0.0,
        0.0
      ],
      "type": "VEC2"
    },
    {
      "bufferView": 0,
      "byteOffset": 96156,
      "componentType": 5125,
      "count": 2712,
      "type": "SCALAR"
    },
    {
      "bufferView": 2,
      "byteOffset": 201816,
      "componentType": 5126,
      "count": 32,
      "max": [
        0.004928416106849909,
        0.004922568332403898,
        0.00030807507573626935
      ],
      "min": [
        -0.004930532071739435,
        -0.004936377517879009,
        0.00030807507573626935
      ],
      "type": "VEC3"
    },
    {
      "bufferView": 2,
      "byteOffset": 202200,
      "componentType": 5126,
      "count": 32,
      "max": [
        7.728360729153394e-10,
        0.0,
        1.0
      ],
      "min": [
        7.728360729153394e-10,
        0.0,
        1.0
      ],
      "type": "VEC3"
    },
    {
      "bufferView": 1,
      "byteOffset": 67272,
      "componentType": 5126,
      "count": 32,
      "max": [
        0.0,
        0.0
      ],
      "min": [
        0.0,
        0.0
      ],
      "type": "VEC2"
    },
    {
      "bufferView": 0,
      "byteOffset": 107004,
      "componentType": 5125,
      "count": 90,
      "type": "SCALAR"
    },
    {
      "bufferView": 2,
      "byteOffset": 202584,
      "componentType": 5126,
      "count": 257,
      "max": [
        0.002449014224112034,
        0.0024624615907669067,
        0.00027945119654759765
      ],
      "min": [
        -0.0024483841843903065,
        -0.002434931928291917,
        -0.0007681968272663653
      ],
      "type": "VEC3"
    },
    {
      "bufferView": 2,
      "byteOffset": 205668,
      "componentType": 5126,
      "count": 257,
      "max": [
        0.9745091795921326,
        0.9745102524757385,
        -0.22433477640151978
      ],
      "min": [
        -0.9745104312896729,
        -0.9745116829872131,
        -1.0
      ],
      "type": "VEC3"
    },
    {
      "bufferView": 1,
      "byteOffset": 67528,
      "componentType": 5126,
      "count": 257,
      "max": [
        0.9481523633003235,
        0.9254963397979736
      ],
      "min": [
        0.059936683624982834,
        -0.07431519776582718
      ],
      "type": "VEC2"
    },
    {
      "bufferView": 0,
      "byteOffset": 107364,
      "componentType": 5125,
      "count": 1440,
      "type": "SCALAR"
    },
    {
      "bufferView": 2,
      "byteOffset": 208752,
      "componentType": 5126,
      "count": 69,
      "max": [
        0.03285937383770943,
        0.07275309413671494,
        -0.003634797874838114
      ],
      "min": [
        -0.032566312700510025,
        -0.07267957925796509,
        -0.0036906127352267504
      ],
      "type": "VEC3"
    },
    {
      "bufferView": 2,
      "byteOffset": 209580,
      "componentType": 5126,
      "count": 69,
      "max": [
        0.0010491335997357965,
        0.001397825195454061,
        -0.9999707341194153
      ],
      "min": [
        -0.0005746190436184406,
        -0.007631051354110241,
        -0.9999998807907104
      ],
      "type": "VEC3"
    },
    {
      "bufferView": 1,
      "byteOffset": 69584,
      "componentType": 5126,
      "count": 69,
      "max": [
        0.9993774890899658,
        0.9971617460250854
      ],
      "min": [
        -0.00264015793800354,
        0.003568553365767002
      ],
      "type": "VEC2"
    },
    {
      "bufferView": 1,
      "byteOffset": 70136,
      "componentType": 5126,
      "count": 69,
      "max": [
        0.9993774890899658,
        0.9971617460250854
      ],
      "min": [
        -0.00264015793800354,
        0.003568553365767002
      ],
      "type": "VEC2"
    },
    {
      "bufferView": 0,
      "byteOffset": 113124,
      "componentType": 5125,
      "count": 189,
      "type": "SCALAR"
    },
    {
      "bufferView": 2,
      "byteOffset": 210408,
      "componentType": 5126,
      "count": 4,
      "max": [
        0.10000000149011612,
        0.10000000149011612,
        0.0
      ],
      "min": [
        -0.10000000149011612,
        -0.10000000149011612,
        0.0
      ],
      "type": "VEC3"
    },
    {
      "bufferView": 2,
      "byteOffset": 210456,
      "componentType": 5126,
      "count": 4,
      "max": [
        0.0,
        0.0,
        1.0
      ],
      "min": [
        0.0,
        0.0,
        1.0
      ],
      "type": "VEC3"
    },
    {
      "bufferView": 1,
      "byteOffset": 70688,
      "componentType": 5126,
      "count": 4,
      "max": [
        1.0,
        1.0
      ],
      "min": [
        0.0,
        0.0
      ],
      "type": "VEC2"
    },
    {
      "bufferView": 0,
      "byteOffset": 113880,
      "componentType": 5125,
      "count": 6,
      "type": "SCALAR"
    }
  ],
  "asset": {
    "extras": {
      "author": "DjalalxJay (https://sketchfab.com/djalalxjay)",
      "license": "CC-BY-4.0 (http://creativecommons.org/licenses/by/4.0/)",
      "source": "https://sketchfab.com/3d-models/samsung-galaxy-s21-phantom-violet-9e828a614d5f4d13bc78abc7d358f788",
      "title": "Samsung Galaxy S21 Phantom Violet"
    },
    "generator": "Sketchfab-13.28.0",
    "version": "2.0"
  },
  "bufferViews": [
    {
      "buffer": 0,
      "byteLength": 113904,
      "name": "floatBufferViews",
      "target": 34963
    },
    {
      "buffer": 0,
      "byteLength": 70720,
      "byteOffset": 113904,
      "byteStride": 8,
      "name": "floatBufferViews",
      "target": 34962
    },
    {
      "buffer": 0,
      "byteLength": 210504,
      "byteOffset": 184624,
      "byteStride": 12,
      "name": "floatBufferViews",
      "target": 34962
    }
  ],
  "buffers": [
    {
      "byteLength": 395128,
      "uri": "scene.bin"
    }
  ],
  "images": [
    {
      "uri": "textures/Lens_baseColor.jpg"
    },
    {
      "uri": "textures/Display_baseColor.jpeg"
    },
    {
      "uri": "textures/Samsung_baseColor.jpg"
    }
  ],
  "materials": [
    {
      "name": "Gold",
      "pbrMetallicRoughness": {
        "baseColorFactor": [
          0.7409556523337896,
          0.47282506737487046,
          0.47282506737487046,
          1.0
        ],
        "roughnessFactor": 0.19999999999999996
      }
    },
    {
      "name": "Frame",
      "pbrMetallicRoughness": {
        "baseColorFactor": [
          0.0215881,
          0.0215881,
          0.0215881,
          1.0
        ],
        "metallicFactor": 0.0,
        "roughnessFactor": 0.19999999999999996
      }
    },
    {
      "name": "Violet",
      "pbrMetallicRoughness": {
        "baseColorFactor": [
          0.23337405929516264,
          0.3007503121576154,
          0.7076012526892669,
          1.0
        ],
        "metallicFactor": 0.0,
        "roughnessFactor": 0.18475942021918546
      }
    },
    {
      "name": "Antenna",
      "pbrMetallicRoughness": {
        "baseColorFactor": [
          0.167948,
          0.167948,
          0.167948,
          1.0
        ],
        "metallicFactor": 0.0,
        "roughnessFactor": 0.9624456855314866
      }
    },
    {
      "name": "Camera",
      "pbrMetallicRoughness": {
        "baseColorFactor": [
          0.0090182,
          0.0090182,
          0.0090182,
          1.0
        ],
        "metallicFactor": 0.0,
        "roughnessFactor": 0.9979834691765311
      }
    },
    {
      "alphaMode": "BLEND",
      "name": "Glass",
      "pbrMetallicRoughness": {
        "baseColorFactor": [
          0.015876293507004053,
          0.015876293507004053,
          0.015876293507004053,
          0.2
        ],
        "metallicFactor": 0.0,
        "roughnessFactor": 0.0
      }
    },
    {
      "doubleSided": true,
      "name": "Lens",
      "pbrMetallicRoughness": {
        "baseColorTexture": {
          "index": 0
        },
        "roughnessFactor": 0.7470177871865296
      }
    },
    {
      "emissiveFactor": [
        0.5,
        0.5,
        0.5
      ],
      "emissiveTexture": {
        "index": 1
      },
      "name": "Display",
      "pbrMetallicRoughness": {
        "baseColorTexture": {
          "index": 1
        },
        "metallicFactor": 0.5,
        "roughnessFactor": 0.0
      }
    },
    {
      "name": "Samsung",
      "pbrMetallicRoughness": {
        "baseColorTexture": {
          "index": 2
        },
        "metallicFactor": 0.0,
        "roughnessFactor": 0.26399775694554506
      }
    }
  ],
  "meshes": [
    {
      "name": "Samsung Galaxy S21.002_Gold_0",
      "primitives": [
        {
          "attributes": {
            "NORMAL": 1,
            "POSITION": 0,
            "TEXCOORD_0": 2
          },
          "indices": 3,
          "material": 0,
          "mode": 4
        }
      ]
    },
    {
      "name": "Samsung Galaxy S21.002_Frame_0",
      "primitives": [
        {
          "attributes": {
            "NORMAL": 5,
            "POSITION": 4,
            "TEXCOORD_0": 6
          },
          "indices": 7,
          "material": 1,
          "mode": 4
        }
      ]
    },
    {
      "name": "Samsung Galaxy S21.002_Violet_0",
      "primitives": [
        {
          "attributes": {
            "NORMAL": 9,
            "POSITION": 8,
            "TEXCOORD_0": 10
          },
          "indices": 11,
          "material": 2,
          "mode": 4
        }
      ]
    },
    {
      "name": "Samsung Galaxy S21.002_Antenna_0",
      "primitives": [
        {
          "attributes": {
            "NORMAL": 13,
            "POSITION": 12,
            "TEXCOORD_0": 14
          },
          "indices": 15,
          "material": 3,
          "mode": 4
        }
      ]
    },
    {
      "name": "Camera Wide Angle.002_Frame_0",
      "primitives": [
        {
          "attributes": {
            "NORMAL": 17,
            "POSITION": 16,
            "TEXCOORD_0": 18
          },
          "indices": 19,
          "material": 1,
          "mode": 4
        }
      ]
    },
    {
      "name": "Camera Wide Angle.002_Camera_0",
      "primitives": [
        {
          "attributes": {
            "NORMAL": 21,
            "POSITION": 20,
            "TEXCOORD_0": 22
          },
          "indices": 23,
          "material": 4,
          "mode": 4
        }
      ]
    },
    {
      "name": "Camera Wide Angle.002_Glass_0",
      "primitives": [
        {
          "attributes": {
            "NORMAL": 25,
            "POSITION": 24,
            "TEXCOORD_0": 26
          },
          "indices": 27,
          "material": 5,
          "mode": 4
        }
      ]
    },
    {
      "name": "Camera Wide Angle.002_Lens_0",
      "primitives": [
        {
          "attributes": {
            "NORMAL": 29,
            "POSITION": 28,
            "TEXCOORD_0": 30
          },
          "indices": 31,
          "material": 6,
          "mode": 4
        }
      ]
    },
    {
      "name": "Camera Ultrawide Angle.002_Frame_0",
      "primitives": [
        {
          "attributes": {
            "NORMAL": 33,
            "POSITION": 32,
            "TEXCOORD_0": 34
          },
          "indices": 35,
          "material": 1,
          "mode": 4
        }
      ]
    },
    {
      "name": "Camera Ultrawide Angle.002_Camera_0",
      "primitives": [
        {
          "attributes": {
            "NORMAL": 37,
            "POSITION": 36,
            "TEXCOORD_0": 38
          },
          "indices": 39,
          "material": 4,
          "mode": 4
        }
      ]
    },
    {
      "name": "Camera Ultrawide Angle.002_Glass_0",
      "primitives": [
        {
          "attributes": {
            "NORMAL": 41,
            "POSITION": 40,
            "TEXCOORD_0": 42
          },
          "indices": 43,
          "material": 5,
          "mode": 4
        }
      ]
    },
    {
      "name": "Camera Ultrawide Angle.002_Lens_0",
      "primitives": [
        {
          "attributes": {
            "NORMAL": 45,
            "POSITION": 44,
            "TEXCOORD_0": 46
          },
          "indices": 47,
          "material": 6,
          "mode": 4
        }
      ]
    },
    {
      "name": "Camera Front.002_Frame_0",
      "primitives": [
        {
          "attributes": {
            "NORMAL": 49,
            "POSITION": 48,
            "TEXCOORD_0": 50
          },
          "indices": 51,
          "material": 1,
          "mode": 4
        }
      ]
    },
    {
      "name": "Camera Front.002_Camera_0",
      "primitives": [
        {
          "attributes": {
            "NORMAL": 53,
            "POSITION": 52,
            "TEXCOORD_0": 54
          },
          "indices": 55,
          "material": 4,
          "mode": 4
        }
      ]
    },
    {
      "name": "Camera Front.002_Glass_0",
      "primitives": [
        {
          "attributes": {
            "NORMAL": 57,
            "POSITION": 56,
            "TEXCOORD_0": 58
          },
          "indices": 59,
          "material": 5,
          "mode": 4
        }
      ]
    },
    {
      "name": "Camera Front.002_Lens_0",
      "primitives": [
        {
          "attributes": {
            "NORMAL": 61,
            "POSITION": 60,
            "TEXCOORD_0": 62
          },
          "indices": 63,
          "material": 6,
          "mode": 4
        }
      ]
    },
    {
      "name": "Camera Teleobject.002_Frame_0",
      "primitives": [
        {
          "attributes": {
            "NORMAL": 65,
            "POSITION": 64,
            "TEXCOORD_0": 66
          },
          "indices": 67,
          "material": 1,
          "mode": 4
        }
      ]
    },
    {
      "name": "Camera Teleobject.002_Camera_0",
      "primitives": [
        {
          "attributes": {
            "NORMAL": 69,
            "POSITION": 68,
            "TEXCOORD_0": 70
          },
          "indices": 71,
          "material": 4,
          "mode": 4
        }
      ]
    },
    {
      "name": "Camera Teleobject.002_Glass_0",
      "primitives": [
        {
          "attributes": {
            "NORMAL": 73,
            "POSITION": 72,
            "TEXCOORD_0": 74
          },
          "indices": 75,
          "material": 5,
          "mode": 4
        }
      ]
    },
    {
      "name": "Camera Teleobject.002_Lens_0",
      "primitives": [
        {
          "attributes": {
            "NORMAL": 77,
            "POSITION": 76,
            "TEXCOORD_0": 78
          },
          "indices": 79,
          "material": 6,
          "mode": 4
        }
      ]
    },
    {
      "name": "Samsung Galaxy S21.003_Display_0",
      "primitives": [
        {
          "attributes": {
            "NORMAL": 81,
            "POSITION": 80,
            "TEXCOORD_0": 82,
            "TEXCOORD_1": 83
          },
          "indices": 84,
          "material": 7,
          "mode": 4
        }
      ]
    },
    {
      "name": "Samsung_Samsung_0",
      "primitives": [
        {
          "attributes": {
            "NORMAL": 86,
            "POSITION": 85,
            "TEXCOORD_0": 87
          },
          "indices": 88,
          "material": 8,
          "mode": 4
        }
      ]
    }
  ],
  "nodes": [
    {
      "children": [
        1
      ],
      "matrix": [
        1.0,
        -3.33066907387547e-16,
        2.832769343193998e-16,
        0.0,
        -3.3306690738754696e-16,
        -1.0,
        -4.440892098500626e-16,
        0.0,
        2.832769343193999e-16,
        4.440892098500626e-16,
        -1.0,
        0.0,
        0.0,
        0.0,
        0.0,
        1.0
      ],
      "name": "Sketchfab_model"
    },
    {
      "children": [
        2
      ],
      "matrix": [
        0.009999999776482582,
        0.0,
        0.0,
        0.0,
        0.0,
        0.0,
        0.009999999776482582,
        0.0,
        0.0,
        -0.009999999776482582,
        0.0,
        0.0,
        0.0,
        0.0,
        0.0,
        1.0
      ],
      "name": "031784dc49d54ca7b38a2136028be1f2.fbx"
    },
    {
      "children": [
        3,
        8,
        13,
        18,
        23,
        28,
        30
      ],
      "name": "RootNode"
    },
    {
      "children": [
        4,
        5,
        6,
        7
      ],
      "matrix": [
        -99.99999999997497,
        -6.278329573008881e-05,
        3.25841284620759e-05,
        0.0,
        3.258411823337184e-05,
        1.6292088422797946e-05,
        99.99999999999338,
        0.0,
        -6.278330103871965e-05,
        99.99999999997897,
        -1.6292067961387602e-05,
        0.0,
        -0.00011522788554430008,
        0.0,
        -9.775635408004746e-05,
        1.0
      ],
      "name": "Samsung Galaxy S21.002"
    },
    {
      "mesh": 0,
      "name": "Samsung Galaxy S21.002_Gold_0"
    },
    {
      "mesh": 1,
      "name": "Samsung Galaxy S21.002_Frame_0"
    },
    {
      "mesh": 2,
      "name": "Samsung Galaxy S21.002_Violet_0"
    },
    {
      "mesh": 3,
      "name": "Samsung Galaxy S21.002_Antenna_0"
    },
    {
      "children": [
        9,
        10,
        11,
        12
      ],
      "matrix": [
        -99.99999999997497,
        -6.278329573008881e-05,
        3.25841284620759e-05,
        0.0,
        3.258411823337184e-05,
        1.6292088422797946e-05,
        99.99999999999338,
        0.0,
        -6.278330103871965e-05,
        99.99999999997897,
        -1.6292067961387602e-05,
        0.0,
        2.244983673095703,
        0.5010067820549011,
        5.140926837921143,
        1.0
      ],
      "name": "Camera Wide Angle.002"
    },
    {
      "mesh": 4,
      "name": "Camera Wide Angle.002_Frame_0"
    },
    {
      "mesh": 5,
      "name": "Camera Wide Angle.002_Camera_0"
    },
    {
      "mesh": 6,
      "name": "Camera Wide Angle.002_Glass_0"
    },
    {
      "mesh": 7,
      "name": "Camera Wide Angle.002_Lens_0"
    },
    {
      "children": [
        14,
        15,
        16,
        17
      ],
      "matrix": [
        -99.99999999997497,
        -6.278329573008881e-05,
        3.25841284620759e-05,
        0.0,
        3.258411823337184e-05,
        1.6292088422797946e-05,
        99.99999999999338,
        0.0,
        -6.278330103871965e-05,
        99.99999999997897,
        -1.6292067961387602e-05,
        0.0,
        2.2449839115142822,
        0.5010068416595459,
        6.456936359405518,
        1.0
      ],
      "name": "Camera Ultrawide Angle.002"
    },
    {
      "mesh": 8,
      "name": "Camera Ultrawide Angle.002_Frame_0"
    },
    {
      "mesh": 9,
      "name": "Camera Ultrawide Angle.002_Camera_0"
    },
    {
      "mesh": 10,
      "name": "Camera Ultrawide Angle.002_Glass_0"
    },
    {
      "mesh": 11,
      "name": "Camera Ultrawide Angle.002_Lens_0"
    },
    {
      "children": [
        19,
        20,
        21,
        22
      ],
      "matrix": [
        -99.999999999975,
        -6.278329573008881e-05,
        3.258412846207591e-05,
        0.0,
        -3.2584071331584484e-05,
        -9.09963131068281e-05,
        -99.99999999995329,
        0.0,
        6.278332538041506e-05,
        -99.99999999993888,
        9.099629264541775e-05,
        0.0,
        0.050976645201444626,
        -0.3537728786468506,
        7.019382476806641,
        1.0
      ],
      "name": "Camera Front.002"
    },
    {
      "mesh": 12,
      "name": "Camera Front.002_Frame_0"
    },
    {
      "mesh": 13,
      "name": "Camera Front.002_Camera_0"
    },
    {
      "mesh": 14,
      "name": "Camera Front.002_Glass_0"
    },
    {
      "mesh": 15,
      "name": "Camera Front.002_Lens_0"
    },
    {
      "children": [
        24,
        25,
        26,
        27
      ],
      "matrix": [
        -99.99999999997497,
        -6.278329573008881e-05,
        3.25841284620759e-05,
        0.0,
        3.258411823337184e-05,
        1.6292088422797946e-05,
        99.99999999999338,
        0.0,
        -6.278330103871965e-05,
        99.99999999997897,
        -1.6292067961387602e-05,
        0.0,
        2.244983196258545,
        0.501006543636322,
        3.814089298248291,
        1.0
      ],
      "name": "Camera Teleobject.002"
    },
    {
      "mesh": 16,
      "name": "Camera Teleobject.002_Frame_0"
    },
    {
      "mesh": 17,
      "name": "Camera Teleobject.002_Camera_0"
    },
    {
      "mesh": 18,
      "name": "Camera Teleobject.002_Glass_0"
    },
    {
      "mesh": 19,
      "name": "Camera Teleobject.002_Lens_0"
    },
    {
      "children": [
        29
      ],
      "matrix": [
        -99.99999999997497,
        -6.278329573008881e-05,
        3.25841284620759e-05,
        0.0,
        3.258411823337184e-05,
        1.6292088422797946e-05,
        99.99999999999338,
        0.0,
        -6.278330103871965e-05,
        99.99999999997897,
        -1.6292067961387602e-05,
        0.0,
        -0.00011522788554430008,
        0.0,
        -9.775635408004746e-05,
        1.0
      ],
      "name": "Samsung Galaxy S21.003"
    },
    {
      "mesh": 20,
      "name": "Samsung Galaxy S21.003_Display_0"
    },
    {
      "children": [
        31
      ],
      "matrix": [
        -14.824592590330905,
        -1.4665120448103294e-13,
        5.7729094990399944e-06,
        0.0,
        1.1351692638905435e-06,
        2.2008148712644793e-07,
        2.9150676727292626,
        0.0,
        -5.824937460321477e-13,
        14.824592590331987,
        -1.1192256046225103e-06,
        0.0,
        0.03789481520652771,
        0.4268622100353241,
        -4.1649250984191895,
        1.0
      ],
      "name": "Samsung"
    },
    {
      "mesh": 21,
      "name": "Samsung_Samsung_0"
    }
  ],
  "samplers": [
    {
      "magFilter": 9729,
      "minFilter": 9987,
      "wrapS": 10497,
      "wrapT": 10497
    }
  ],
  "scene": 0,
  "scenes": [
    {
      "name": "Sketchfab_Scene",
      "nodes": [
        0
      ]
    }
  ],
  "textures": [
    {
      "sampler": 0,
      "source": 0
    },
    {
      "sampler": 0,
      "source": 1
    },
    {
      "sampler": 0,
      "source": 2
    }
  ]
}
