{
	"asset":{
		"generator":"Khronos glTF Blender I/O v4.0.44",
		"version":"2.0"
	},
	"scene":0,
	"scenes":[
		{
			"name":"Scene",
			"nodes":[
				66
			]
		}
	],
	"nodes":[
		{
			"mesh":0,
			"name":"iPhone  12 Pro_Antenna_0"
		},
		{
			"mesh":1,
			"name":"iPhone  12 Pro_BodyFrame_0"
		},
		{
			"mesh":2,
			"name":"iPhone  12 Pro_GrayGlossy2_0"
		},
		{
			"mesh":3,
			"name":"iPhone  12 Pro_Microphone/Speaker_0"
		},
		{
			"mesh":4,
			"name":"Apple Logo_Logo_0"
		},
		{
			"children":[
				4
			],
			"name":"Apple Logo"
		},
		{
			"mesh":5,
			"name":"Bezel_bezel_0"
		},
		{
			"mesh":6,
			"name":"FrontCamera_Cameralens_0"
		},
		{
			"mesh":7,
			"name":"FrontCamera_FrontCamera_0"
		},
		{
			"mesh":8,
			"name":"FrontCamera_Glass_0"
		},
		{
			"children":[
				7,
				8,
				9
			],
			"name":"FrontCamera"
		},
		{
			"mesh":9,
			"name":"FrontCamera.001_bezel.001_0"
		},
		{
			"children":[
				11
			],
			"name":"FrontCamera.001",
			"translation":[
				0,
				0,
				-0.0007138540968298912
			]
		},
		{
			"mesh":10,
			"name":"FrontMic_GrayGlossy2_0"
		},
		{
			"mesh":11,
			"name":"FrontMic_Microphone/Speaker_0"
		},
		{
			"children":[
				13,
				14
			],
			"name":"FrontMic"
		},
		{
			"children":[
				6,
				10,
				12,
				15
			],
			"name":"Bezel"
		},
		{
			"mesh":12,
			"name":"Camera1_Blackmatte_0"
		},
		{
			"mesh":13,
			"name":"Camera1_Cameralens_0"
		},
		{
			"mesh":14,
			"name":"Camera1_FrontCamera_0"
		},
		{
			"mesh":15,
			"name":"Camera1_Glass_0"
		},
		{
			"mesh":16,
			"name":"Camera1_GrayGlossy_0"
		},
		{
			"mesh":17,
			"name":"Camera1_PacificBlue_0"
		},
		{
			"children":[
				17,
				18,
				19,
				20,
				21,
				22
			],
			"name":"Camera1"
		},
		{
			"mesh":18,
			"name":"Camera2_Blackmatte_0"
		},
		{
			"mesh":19,
			"name":"Camera2_Cameralens_0"
		},
		{
			"mesh":20,
			"name":"Camera2_FrontCamera_0"
		},
		{
			"mesh":21,
			"name":"Camera2_Glass_0"
		},
		{
			"mesh":22,
			"name":"Camera2_GrayGlossy_0"
		},
		{
			"mesh":23,
			"name":"Camera2_PacificBlue_0"
		},
		{
			"children":[
				24,
				25,
				26,
				27,
				28,
				29
			],
			"name":"Camera2"
		},
		{
			"mesh":24,
			"name":"Camera3_Blackmatte_0"
		},
		{
			"mesh":25,
			"name":"Camera3_Cameralens_0"
		},
		{
			"mesh":26,
			"name":"Camera3_FrontCamera_0"
		},
		{
			"mesh":27,
			"name":"Camera3_Glass_0"
		},
		{
			"mesh":28,
			"name":"Camera3_GrayGlossy_0"
		},
		{
			"mesh":29,
			"name":"Camera3_PacificBlue_0"
		},
		{
			"children":[
				31,
				32,
				33,
				34,
				35,
				36
			],
			"name":"Camera3"
		},
		{
			"mesh":30,
			"name":"CameraModule.001_Glass_0"
		},
		{
			"children":[
				38
			],
			"name":"CameraModule.001"
		},
		{
			"mesh":31,
			"name":"CameraModule.002_Microphone/Speaker_0"
		},
		{
			"children":[
				40
			],
			"name":"CameraModule.002"
		},
		{
			"mesh":32,
			"name":"Flash_Flash2_0"
		},
		{
			"mesh":33,
			"name":"Flash_Flash_0"
		},
		{
			"children":[
				42,
				43
			],
			"name":"Flash"
		},
		{
			"mesh":34,
			"name":"iPhone12 Pro_Body_0"
		},
		{
			"mesh":35,
			"name":"LiDar_LiDar _0"
		},
		{
			"children":[
				46
			],
			"name":"LiDar"
		},
		{
			"mesh":36,
			"name":"Screen_Wallpaper_0"
		},
		{
			"children":[
				48
			],
			"name":"Screen"
		},
		{
			"children":[
				5,
				16,
				23,
				30,
				37,
				39,
				41,
				44,
				45,
				47,
				49
			],
			"name":"iPhone12 Pro"
		},
		{
			"mesh":37,
			"name":"MuteButton_BodyFrame_0"
		},
		{
			"children":[
				51
			],
			"name":"MuteButton"
		},
		{
			"mesh":38,
			"name":"Port_Blackmatte_0"
		},
		{
			"mesh":39,
			"name":"Port_BodyFrame_0"
		},
		{
			"children":[
				53,
				54
			],
			"name":"Port"
		},
		{
			"mesh":40,
			"name":"PowerButton_BodyFrame_0"
		},
		{
			"children":[
				56
			],
			"name":"PowerButton"
		},
		{
			"mesh":41,
			"name":"SimTray_Blackmatte_0"
		},
		{
			"mesh":42,
			"name":"SimTray_BodyFrame_0"
		},
		{
			"children":[
				58,
				59
			],
			"name":"SimTray"
		},
		{
			"mesh":43,
			"name":"VolumeButton_BodyFrame_0"
		},
		{
			"children":[
				61
			],
			"name":"VolumeButton"
		},
		{
			"children":[
				0,
				1,
				2,
				3,
				50,
				52,
				55,
				57,
				60,
				62
			],
			"name":"iPhone  12 Pro",
			"rotation":[
				-0.70710688829422,
				0,
				0,
				0.7071066498756409
			],
			"scale":[
				100,
				99.99999237060547,
				99.99999237060547
			]
		},
		{
			"children":[
				63
			],
			"name":"RootNode"
		},
		{
			"children":[
				64
			],
			"name":"IP12PRO.fbx",
			"rotation":[
				0.70710688829422,
				-2.6057838113047183e-05,
				2.6057838113047183e-05,
				0.7071066498756409
			],
			"scale":[
				0.18680047988891602,
				0.18680047988891602,
				0.18680047988891602
			],
			"translation":[
				-0.00018453299708198756,
				-2.5883517265319824,
				2.4191436767578125
			]
		},
		{
			"children":[
				65
			],
			"name":"Sketchfab_model"
		}
	],
	"materials":[
		{
			"doubleSided":true,
			"name":"Antenna",
			"pbrMetallicRoughness":{
				"baseColorFactor":[
					0.058896999806165695,
					0.1206900030374527,
					0.17335599660873413,
					1
				]
			}
		},
		{
			"doubleSided":true,
			"name":"BodyFrame",
			"pbrMetallicRoughness":{
				"baseColorFactor":[
					0.05564599856734276,
					0.12905900180339813,
					0.17335599660873413,
					1
				],
				"roughnessFactor":0
			}
		},
		{
			"doubleSided":true,
			"name":"GrayGlossy2",
			"pbrMetallicRoughness":{
				"baseColorFactor":[
					0.05087609961628914,
					0.05087609961628914,
					0.05087609961628914,
					1
				],
				"roughnessFactor":0
			}
		},
		{
			"doubleSided":true,
			"name":"MicrophoneSpeaker",
			"pbrMetallicRoughness":{
				"baseColorTexture":{
					"index":0
				},
				"metallicFactor":0
			}
		},
		{
			"doubleSided":true,
			"name":"Logo",
			"pbrMetallicRoughness":{
				"baseColorFactor":[
					0.07186225801706314,
					0.15260182321071625,
					0.22232376039028168,
					1
				],
				"roughnessFactor":0
			}
		},
		{
			"doubleSided":true,
			"name":"bezel",
			"pbrMetallicRoughness":{
				"baseColorFactor":[
					0,
					0,
					0,
					1
				],
				"metallicFactor":0.5975670218467712,
				"roughnessFactor":0
			}
		},
		{
			"doubleSided":true,
			"name":"Cameralens",
			"pbrMetallicRoughness":{
				"baseColorTexture":{
					"index":1
				},
				"roughnessFactor":0
			}
		},
		{
			"doubleSided":true,
			"name":"FrontCamera",
			"pbrMetallicRoughness":{
				"baseColorFactor":[
					0,
					0,
					0,
					1
				],
				"metallicFactor":0
			}
		},
		{
			"alphaMode":"BLEND",
			"doubleSided":true,
			"name":"Glass",
			"pbrMetallicRoughness":{
				"baseColorFactor":[
					0.09503719210624695,
					0.09503719210624695,
					0.09503719210624695,
					0.30000001192092896
				],
				"roughnessFactor":0
			}
		},
		{
			"doubleSided":true,
			"name":"bezel.001",
			"pbrMetallicRoughness":{
				"baseColorFactor":[
					0,
					0,
					0,
					1
				],
				"metallicFactor":0.40300148725509644,
				"roughnessFactor":0
			}
		},
		{
			"doubleSided":true,
			"name":"Blackmatte",
			"pbrMetallicRoughness":{
				"baseColorFactor":[
					0,
					0,
					0,
					1
				]
			}
		},
		{
			"doubleSided":true,
			"name":"GrayGlossy",
			"pbrMetallicRoughness":{
				"baseColorFactor":[
					0.03421842306852341,
					0.03421842306852341,
					0.03421842306852341,
					1
				],
				"roughnessFactor":0.37260061502456665
			}
		},
		{
			"doubleSided":true,
			"name":"PacificBlue",
			"pbrMetallicRoughness":{
				"baseColorFactor":[
					0.09229571372270584,
					0.20565631985664368,
					0.3052835762500763,
					1
				],
				"roughnessFactor":0.1841152459383011
			}
		},
		{
			"doubleSided":true,
			"name":"Flash2",
			"pbrMetallicRoughness":{
				"baseColorFactor":[
					0.08283569663763046,
					0.20144100487232208,
					0.23955200612545013,
					1
				],
				"roughnessFactor":0.5909183621406555
			}
		},
		{
			"doubleSided":true,
			"name":"Flash",
			"pbrMetallicRoughness":{
				"baseColorTexture":{
					"index":2
				},
				"roughnessFactor":0.19019541144371033
			}
		},
		{
			"doubleSided":true,
			"name":"Body",
			"pbrMetallicRoughness":{
				"baseColorFactor":[
					0.04629197344183922,
					0.12732012569904327,
					0.17901507019996643,
					1
				],
				"metallicFactor":0.6887696385383606,
				"roughnessFactor":0.43340232968330383
			}
		},
		{
			"doubleSided":true,
			"name":"LiDar",
			"pbrMetallicRoughness":{
				"baseColorFactor":[
					0,
					0,
					0,
					1
				]
			}
		},
		{
			"doubleSided":true,
			"name":"Wallpaper",
			"pbrMetallicRoughness":{
				"baseColorTexture":{
					"index":3
				},
				"metallicFactor":0.4151618182659149
			}
		}
	],
	"meshes":[
		{
			"name":"iPhone  12 Pro_Antenna_0",
			"primitives":[
				{
					"attributes":{
						"POSITION":0,
						"NORMAL":1,
						"TEXCOORD_0":2
					},
					"indices":3,
					"material":0
				}
			]
		},
		{
			"name":"iPhone  12 Pro_BodyFrame_0",
			"primitives":[
				{
					"attributes":{
						"POSITION":4,
						"NORMAL":5,
						"TEXCOORD_0":6
					},
					"indices":7,
					"material":1
				}
			]
		},
		{
			"name":"iPhone  12 Pro_GrayGlossy2_0",
			"primitives":[
				{
					"attributes":{
						"POSITION":8,
						"NORMAL":9,
						"TEXCOORD_0":10
					},
					"indices":11,
					"material":2
				}
			]
		},
		{
			"name":"iPhone  12 Pro_Microphone/Speaker_0",
			"primitives":[
				{
					"attributes":{
						"POSITION":12,
						"NORMAL":13,
						"TEXCOORD_0":14
					},
					"indices":15,
					"material":3
				}
			]
		},
		{
			"name":"Apple Logo_Logo_0",
			"primitives":[
				{
					"attributes":{
						"POSITION":16,
						"NORMAL":17
					},
					"indices":18,
					"material":4
				}
			]
		},
		{
			"name":"Bezel_bezel_0",
			"primitives":[
				{
					"attributes":{
						"POSITION":19,
						"NORMAL":20,
						"TEXCOORD_0":21
					},
					"indices":22,
					"material":5
				}
			]
		},
		{
			"name":"FrontCamera_Cameralens_0",
			"primitives":[
				{
					"attributes":{
						"POSITION":23,
						"NORMAL":24,
						"TEXCOORD_0":25
					},
					"indices":26,
					"material":6
				}
			]
		},
		{
			"name":"FrontCamera_FrontCamera_0",
			"primitives":[
				{
					"attributes":{
						"POSITION":27,
						"NORMAL":28,
						"TEXCOORD_0":29
					},
					"indices":30,
					"material":7
				}
			]
		},
		{
			"name":"FrontCamera_Glass_0",
			"primitives":[
				{
					"attributes":{
						"POSITION":31,
						"NORMAL":32,
						"TEXCOORD_0":33
					},
					"indices":34,
					"material":8
				}
			]
		},
		{
			"name":"FrontCamera.001_bezel.001_0",
			"primitives":[
				{
					"attributes":{
						"POSITION":35,
						"NORMAL":36,
						"TEXCOORD_0":37
					},
					"indices":38,
					"material":9
				}
			]
		},
		{
			"name":"FrontMic_GrayGlossy2_0",
			"primitives":[
				{
					"attributes":{
						"POSITION":39,
						"NORMAL":40,
						"TEXCOORD_0":41
					},
					"indices":42,
					"material":2
				}
			]
		},
		{
			"name":"FrontMic_Microphone/Speaker_0",
			"primitives":[
				{
					"attributes":{
						"POSITION":43,
						"NORMAL":44,
						"TEXCOORD_0":45
					},
					"indices":46,
					"material":3
				}
			]
		},
		{
			"name":"Camera1_Blackmatte_0",
			"primitives":[
				{
					"attributes":{
						"POSITION":47,
						"NORMAL":48,
						"TEXCOORD_0":49
					},
					"indices":50,
					"material":10
				}
			]
		},
		{
			"name":"Camera1_Cameralens_0",
			"primitives":[
				{
					"attributes":{
						"POSITION":51,
						"NORMAL":52,
						"TEXCOORD_0":53
					},
					"indices":54,
					"material":6
				}
			]
		},
		{
			"name":"Camera1_FrontCamera_0",
			"primitives":[
				{
					"attributes":{
						"POSITION":55,
						"NORMAL":56,
						"TEXCOORD_0":57
					},
					"indices":58,
					"material":7
				}
			]
		},
		{
			"name":"Camera1_Glass_0",
			"primitives":[
				{
					"attributes":{
						"POSITION":59,
						"NORMAL":60,
						"TEXCOORD_0":61
					},
					"indices":62,
					"material":8
				}
			]
		},
		{
			"name":"Camera1_GrayGlossy_0",
			"primitives":[
				{
					"attributes":{
						"POSITION":63,
						"NORMAL":64,
						"TEXCOORD_0":65
					},
					"indices":66,
					"material":11
				}
			]
		},
		{
			"name":"Camera1_PacificBlue_0",
			"primitives":[
				{
					"attributes":{
						"POSITION":67,
						"NORMAL":68,
						"TEXCOORD_0":69
					},
					"indices":70,
					"material":12
				}
			]
		},
		{
			"name":"Camera2_Blackmatte_0",
			"primitives":[
				{
					"attributes":{
						"POSITION":71,
						"NORMAL":72,
						"TEXCOORD_0":73
					},
					"indices":50,
					"material":10
				}
			]
		},
		{
			"name":"Camera2_Cameralens_0",
			"primitives":[
				{
					"attributes":{
						"POSITION":74,
						"NORMAL":75,
						"TEXCOORD_0":76
					},
					"indices":77,
					"material":6
				}
			]
		},
		{
			"name":"Camera2_FrontCamera_0",
			"primitives":[
				{
					"attributes":{
						"POSITION":78,
						"NORMAL":79,
						"TEXCOORD_0":80
					},
					"indices":58,
					"material":7
				}
			]
		},
		{
			"name":"Camera2_Glass_0",
			"primitives":[
				{
					"attributes":{
						"POSITION":81,
						"NORMAL":82,
						"TEXCOORD_0":83
					},
					"indices":84,
					"material":8
				}
			]
		},
		{
			"name":"Camera2_GrayGlossy_0",
			"primitives":[
				{
					"attributes":{
						"POSITION":85,
						"NORMAL":86,
						"TEXCOORD_0":87
					},
					"indices":88,
					"material":11
				}
			]
		},
		{
			"name":"Camera2_PacificBlue_0",
			"primitives":[
				{
					"attributes":{
						"POSITION":89,
						"NORMAL":90,
						"TEXCOORD_0":91
					},
					"indices":92,
					"material":12
				}
			]
		},
		{
			"name":"Camera3_Blackmatte_0",
			"primitives":[
				{
					"attributes":{
						"POSITION":93,
						"NORMAL":94,
						"TEXCOORD_0":95
					},
					"indices":50,
					"material":10
				}
			]
		},
		{
			"name":"Camera3_Cameralens_0",
			"primitives":[
				{
					"attributes":{
						"POSITION":96,
						"NORMAL":97,
						"TEXCOORD_0":98
					},
					"indices":99,
					"material":6
				}
			]
		},
		{
			"name":"Camera3_FrontCamera_0",
			"primitives":[
				{
					"attributes":{
						"POSITION":100,
						"NORMAL":101,
						"TEXCOORD_0":102
					},
					"indices":58,
					"material":7
				}
			]
		},
		{
			"name":"Camera3_Glass_0",
			"primitives":[
				{
					"attributes":{
						"POSITION":103,
						"NORMAL":104,
						"TEXCOORD_0":105
					},
					"indices":106,
					"material":8
				}
			]
		},
		{
			"name":"Camera3_GrayGlossy_0",
			"primitives":[
				{
					"attributes":{
						"POSITION":107,
						"NORMAL":108,
						"TEXCOORD_0":109
					},
					"indices":110,
					"material":11
				}
			]
		},
		{
			"name":"Camera3_PacificBlue_0",
			"primitives":[
				{
					"attributes":{
						"POSITION":111,
						"NORMAL":112,
						"TEXCOORD_0":113
					},
					"indices":114,
					"material":12
				}
			]
		},
		{
			"name":"CameraModule.001_Glass_0",
			"primitives":[
				{
					"attributes":{
						"POSITION":115,
						"NORMAL":116,
						"TEXCOORD_0":117
					},
					"indices":118,
					"material":8
				}
			]
		},
		{
			"name":"CameraModule.002_Microphone/Speaker_0",
			"primitives":[
				{
					"attributes":{
						"POSITION":119,
						"NORMAL":120,
						"TEXCOORD_0":121
					},
					"indices":122,
					"material":3
				}
			]
		},
		{
			"name":"Flash_Flash2_0",
			"primitives":[
				{
					"attributes":{
						"POSITION":123,
						"NORMAL":124,
						"TEXCOORD_0":125
					},
					"indices":126,
					"material":13
				}
			]
		},
		{
			"name":"Flash_Flash_0",
			"primitives":[
				{
					"attributes":{
						"POSITION":127,
						"NORMAL":128,
						"TEXCOORD_0":129
					},
					"indices":130,
					"material":14
				}
			]
		},
		{
			"name":"iPhone12 Pro_Body_0",
			"primitives":[
				{
					"attributes":{
						"POSITION":131,
						"NORMAL":132,
						"TEXCOORD_0":133
					},
					"indices":134,
					"material":15
				}
			]
		},
		{
			"name":"LiDar_LiDar _0",
			"primitives":[
				{
					"attributes":{
						"POSITION":135,
						"NORMAL":136,
						"TEXCOORD_0":137
					},
					"indices":138,
					"material":16
				}
			]
		},
		{
			"name":"Screen_Wallpaper_0",
			"primitives":[
				{
					"attributes":{
						"POSITION":139,
						"NORMAL":140,
						"TEXCOORD_0":141
					},
					"indices":142,
					"material":17
				}
			]
		},
		{
			"name":"MuteButton_BodyFrame_0",
			"primitives":[
				{
					"attributes":{
						"POSITION":143,
						"NORMAL":144,
						"TEXCOORD_0":145
					},
					"indices":146,
					"material":1
				}
			]
		},
		{
			"name":"Port_Blackmatte_0",
			"primitives":[
				{
					"attributes":{
						"POSITION":147,
						"NORMAL":148,
						"TEXCOORD_0":149
					},
					"indices":150,
					"material":10
				}
			]
		},
		{
			"name":"Port_BodyFrame_0",
			"primitives":[
				{
					"attributes":{
						"POSITION":151,
						"NORMAL":152,
						"TEXCOORD_0":153
					},
					"indices":154,
					"material":1
				}
			]
		},
		{
			"name":"PowerButton_BodyFrame_0",
			"primitives":[
				{
					"attributes":{
						"POSITION":155,
						"NORMAL":156,
						"TEXCOORD_0":157
					},
					"indices":158,
					"material":1
				}
			]
		},
		{
			"name":"SimTray_Blackmatte_0",
			"primitives":[
				{
					"attributes":{
						"POSITION":159,
						"NORMAL":160,
						"TEXCOORD_0":161
					},
					"indices":162,
					"material":10
				}
			]
		},
		{
			"name":"SimTray_BodyFrame_0",
			"primitives":[
				{
					"attributes":{
						"POSITION":163,
						"NORMAL":164,
						"TEXCOORD_0":165
					},
					"indices":166,
					"material":1
				}
			]
		},
		{
			"name":"VolumeButton_BodyFrame_0",
			"primitives":[
				{
					"attributes":{
						"POSITION":167,
						"NORMAL":168,
						"TEXCOORD_0":169
					},
					"indices":170,
					"material":1
				}
			]
		}
	],
	"textures":[
		{
			"sampler":0,
			"source":0
		},
		{
			"sampler":0,
			"source":1
		},
		{
			"sampler":0,
			"source":2
		},
		{
			"sampler":0,
			"source":3
		}
	],
	"images":[
		{
			"mimeType":"image/jpeg",
			"name":"MicrophoneSpeaker_baseColor",
			"uri":"textures/MicrophoneSpeaker_baseColor.jpg"
		},
		{
			"mimeType":"image/png",
			"name":"Cameralens_baseColor",
			"uri":"textures/Cameralens_baseColor.jpg"
		},
		{
			"mimeType":"image/jpeg",
			"name":"Flash_baseColor",
			"uri":"textures/Flash_baseColor.jpg"
		},
		{
			"mimeType":"image/png",
			"name":"Wallpaper_baseColor",
			"uri":"textures/Wallpaper_baseColor.jpg"
		}
	],
	"accessors":[
		{
			"bufferView":0,
			"componentType":5126,
			"count":302,
			"max":[
				0.2463454306125641,
				0.985017716884613,
				0.022051142528653145
			],
			"min":[
				-0.22992290556430817,
				0.00039654970169067383,
				-0.022693153470754623
			],
			"type":"VEC3"
		},
		{
			"bufferView":1,
			"componentType":5126,
			"count":302,
			"type":"VEC3"
		},
		{
			"bufferView":2,
			"componentType":5126,
			"count":302,
			"type":"VEC2"
		},
		{
			"bufferView":3,
			"componentType":5123,
			"count":918,
			"type":"SCALAR"
		},
		{
			"bufferView":4,
			"componentType":5126,
			"count":2666,
			"max":[
				0.2463454306125641,
				0.985017716884613,
				0.022051142528653145
			],
			"min":[
				-0.22992290556430817,
				0.00039637088775634766,
				-0.022693153470754623
			],
			"type":"VEC3"
		},
		{
			"bufferView":5,
			"componentType":5126,
			"count":2666,
			"type":"VEC3"
		},
		{
			"bufferView":6,
			"componentType":5126,
			"count":2666,
			"type":"VEC2"
		},
		{
			"bufferView":7,
			"componentType":5123,
			"count":10575,
			"type":"SCALAR"
		},
		{
			"bufferView":8,
			"componentType":5126,
			"count":1438,
			"max":[
				0.16151274740695953,
				0.0034925341606140137,
				0.006325496360659599
			],
			"min":[
				-0.11485559493303299,
				0.00039649009704589844,
				-0.005290034227073193
			],
			"type":"VEC3"
		},
		{
			"bufferView":9,
			"componentType":5126,
			"count":1438,
			"type":"VEC3"
		},
		{
			"bufferView":10,
			"componentType":5126,
			"count":1438,
			"type":"VEC2"
		},
		{
			"bufferView":11,
			"componentType":5123,
			"count":4140,
			"type":"SCALAR"
		},
		{
			"bufferView":12,
			"componentType":5126,
			"count":264,
			"max":[
				0.16151274740695953,
				0.0034925341606140137,
				0.006325496360659599
			],
			"min":[
				-0.11485559493303299,
				0.0034925341606140137,
				-0.005290034227073193
			],
			"type":"VEC3"
		},
		{
			"bufferView":13,
			"componentType":5126,
			"count":264,
			"type":"VEC3"
		},
		{
			"bufferView":14,
			"componentType":5126,
			"count":264,
			"type":"VEC2"
		},
		{
			"bufferView":15,
			"componentType":5123,
			"count":744,
			"type":"SCALAR"
		},
		{
			"bufferView":16,
			"componentType":5126,
			"count":3428,
			"max":[
				0.049155741930007935,
				0.550403356552124,
				-0.02195029892027378
			],
			"min":[
				-0.04594492167234421,
				0.4333096444606781,
				-0.022740131244063377
			],
			"type":"VEC3"
		},
		{
			"bufferView":17,
			"componentType":5126,
			"count":3428,
			"type":"VEC3"
		},
		{
			"bufferView":18,
			"componentType":5123,
			"count":17640,
			"type":"SCALAR"
		},
		{
			"bufferView":19,
			"componentType":5126,
			"count":561,
			"max":[
				0.24151331186294556,
				0.9801854491233826,
				0.02213754504919052
			],
			"min":[
				-0.2250903844833374,
				0.005228817462921143,
				0.02204902656376362
			],
			"type":"VEC3"
		},
		{
			"bufferView":20,
			"componentType":5126,
			"count":561,
			"type":"VEC3"
		},
		{
			"bufferView":21,
			"componentType":5126,
			"count":561,
			"type":"VEC2"
		},
		{
			"bufferView":22,
			"componentType":5123,
			"count":1686,
			"type":"SCALAR"
		},
		{
			"bufferView":23,
			"componentType":5126,
			"count":289,
			"max":[
				0.05540650337934494,
				0.955425500869751,
				0.02191072143614292
			],
			"min":[
				0.04776845872402191,
				0.9477835893630981,
				0.02016933634877205
			],
			"type":"VEC3"
		},
		{
			"bufferView":24,
			"componentType":5126,
			"count":289,
			"type":"VEC3"
		},
		{
			"bufferView":25,
			"componentType":5126,
			"count":289,
			"type":"VEC2"
		},
		{
			"bufferView":26,
			"componentType":5123,
			"count":1530,
			"type":"SCALAR"
		},
		{
			"bufferView":27,
			"componentType":5126,
			"count":64,
			"max":[
				0.059478528797626495,
				0.9595012664794922,
				0.02213772013783455
			],
			"min":[
				0.04369585961103439,
				0.9437185525894165,
				0.02016933634877205
			],
			"type":"VEC3"
		},
		{
			"bufferView":28,
			"componentType":5126,
			"count":64,
			"type":"VEC3"
		},
		{
			"bufferView":29,
			"componentType":5126,
			"count":64,
			"type":"VEC2"
		},
		{
			"bufferView":30,
			"componentType":5123,
			"count":192,
			"type":"SCALAR"
		},
		{
			"bufferView":31,
			"componentType":5126,
			"count":32,
			"max":[
				0.059478528797626495,
				0.9595012664794922,
				0.02213772013783455
			],
			"min":[
				0.04369585961103439,
				0.9437185525894165,
				0.0221377182751894
			],
			"type":"VEC3"
		},
		{
			"bufferView":32,
			"componentType":5126,
			"count":32,
			"type":"VEC3"
		},
		{
			"bufferView":33,
			"componentType":5126,
			"count":32,
			"type":"VEC2"
		},
		{
			"bufferView":34,
			"componentType":5123,
			"count":90,
			"type":"SCALAR"
		},
		{
			"bufferView":35,
			"componentType":5126,
			"count":384,
			"max":[
				0.10697703063488007,
				0.9612933397293091,
				0.02293393388390541
			],
			"min":[
				-0.09055452048778534,
				0.9419264793395996,
				0.0221377182751894
			],
			"type":"VEC3"
		},
		{
			"bufferView":36,
			"componentType":5126,
			"count":384,
			"type":"VEC3"
		},
		{
			"bufferView":37,
			"componentType":5126,
			"count":384,
			"type":"VEC2"
		},
		{
			"bufferView":38,
			"componentType":5123,
			"count":1116,
			"type":"SCALAR"
		},
		{
			"bufferView":39,
			"componentType":5126,
			"count":120,
			"max":[
				0.03503565490245819,
				0.9556469321250916,
				0.022137483581900597
			],
			"min":[
				-0.018613126128911972,
				0.9476789236068726,
				0.020440883934497833
			],
			"type":"VEC3"
		},
		{
			"bufferView":40,
			"componentType":5126,
			"count":120,
			"type":"VEC3"
		},
		{
			"bufferView":41,
			"componentType":5126,
			"count":120,
			"type":"VEC2"
		},
		{
			"bufferView":42,
			"componentType":5123,
			"count":360,
			"type":"SCALAR"
		},
		{
			"bufferView":43,
			"componentType":5126,
			"count":30,
			"max":[
				0.034531690180301666,
				0.9551453590393066,
				0.02044088765978813
			],
			"min":[
				-0.018109161406755447,
				0.9481804370880127,
				0.020440883934497833
			],
			"type":"VEC3"
		},
		{
			"bufferView":44,
			"componentType":5126,
			"count":30,
			"type":"VEC3"
		},
		{
			"bufferView":45,
			"componentType":5126,
			"count":30,
			"type":"VEC2"
		},
		{
			"bufferView":46,
			"componentType":5123,
			"count":84,
			"type":"SCALAR"
		},
		{
			"bufferView":47,
			"componentType":5126,
			"count":64,
			"max":[
				0.20202741026878357,
				0.9404576420783997,
				-0.03250430151820183
			],
			"min":[
				0.13137775659561157,
				0.86980801820755,
				-0.032504331320524216
			],
			"type":"VEC3"
		},
		{
			"bufferView":48,
			"componentType":5126,
			"count":64,
			"type":"VEC3"
		},
		{
			"bufferView":49,
			"componentType":5126,
			"count":64,
			"type":"VEC2"
		},
		{
			"bufferView":50,
			"componentType":5123,
			"count":192,
			"type":"SCALAR"
		},
		{
			"bufferView":51,
			"componentType":5126,
			"count":337,
			"max":[
				0.17886026203632355,
				0.9171363115310669,
				-0.02288353256881237
			],
			"min":[
				0.15474975109100342,
				0.8930851221084595,
				-0.031183306127786636
			],
			"type":"VEC3"
		},
		{
			"bufferView":52,
			"componentType":5126,
			"count":337,
			"type":"VEC3"
		},
		{
			"bufferView":53,
			"componentType":5126,
			"count":337,
			"type":"VEC2"
		},
		{
			"bufferView":54,
			"componentType":5123,
			"count":1680,
			"type":"SCALAR"
		},
		{
			"bufferView":55,
			"componentType":5126,
			"count":73,
			"max":[
				0.19109377264976501,
				0.9295240044593811,
				-0.022883540019392967
			],
			"min":[
				0.14231140911579132,
				0.8807416558265686,
				-0.032504331320524216
			],
			"type":"VEC3"
		},
		{
			"bufferView":56,
			"componentType":5126,
			"count":73,
			"type":"VEC3"
		},
		{
			"bufferView":57,
			"componentType":5126,
			"count":73,
			"type":"VEC2"
		},
		{
			"bufferView":58,
			"componentType":5123,
			"count":228,
			"type":"SCALAR"
		},
		{
			"bufferView":59,
			"componentType":5126,
			"count":315,
			"max":[
				0.2016242891550064,
				0.9400545358657837,
				-0.03291251137852669
			],
			"min":[
				0.13178081810474396,
				0.8702110648155212,
				-0.03291859105229378
			],
			"type":"VEC3"
		},
		{
			"bufferView":60,
			"componentType":5126,
			"count":315,
			"type":"VEC3"
		},
		{
			"bufferView":61,
			"componentType":5126,
			"count":315,
			"type":"VEC2"
		},
		{
			"bufferView":62,
			"componentType":5123,
			"count":762,
			"type":"SCALAR"
		},
		{
			"bufferView":63,
			"componentType":5126,
			"count":9037,
			"max":[
				0.20244671404361725,
				0.9408769011497498,
				-0.027309762313961983
			],
			"min":[
				0.1309584677219391,
				0.8693886995315552,
				-0.03334920480847359
			],
			"type":"VEC3"
		},
		{
			"bufferView":64,
			"componentType":5126,
			"count":9037,
			"type":"VEC3"
		},
		{
			"bufferView":65,
			"componentType":5126,
			"count":9037,
			"type":"VEC2"
		},
		{
			"bufferView":66,
			"componentType":5123,
			"count":49899,
			"type":"SCALAR"
		},
		{
			"bufferView":67,
			"componentType":5126,
			"count":564,
			"max":[
				0.2085367739200592,
				0.9469670057296753,
				-0.022680016234517097
			],
			"min":[
				0.12486840784549713,
				0.8632986545562744,
				-0.032912541180849075
			],
			"type":"VEC3"
		},
		{
			"bufferView":68,
			"componentType":5126,
			"count":564,
			"type":"VEC3"
		},
		{
			"bufferView":69,
			"componentType":5126,
			"count":564,
			"type":"VEC2"
		},
		{
			"bufferView":70,
			"componentType":5123,
			"count":1380,
			"type":"SCALAR"
		},
		{
			"bufferView":71,
			"componentType":5126,
			"count":64,
			"max":[
				0.20202742516994476,
				0.8392282724380493,
				-0.03250430151820183
			],
			"min":[
				0.13137778639793396,
				0.7685786485671997,
				-0.032504331320524216
			],
			"type":"VEC3"
		},
		{
			"bufferView":72,
			"componentType":5126,
			"count":64,
			"type":"VEC3"
		},
		{
			"bufferView":73,
			"componentType":5126,
			"count":64,
			"type":"VEC2"
		},
		{
			"bufferView":74,
			"componentType":5126,
			"count":337,
			"max":[
				0.17886027693748474,
				0.8159069418907166,
				-0.02288353256881237
			],
			"min":[
				0.1547497659921646,
				0.7918558120727539,
				-0.031183306127786636
			],
			"type":"VEC3"
		},
		{
			"bufferView":75,
			"componentType":5126,
			"count":337,
			"type":"VEC3"
		},
		{
			"bufferView":76,
			"componentType":5126,
			"count":337,
			"type":"VEC2"
		},
		{
			"bufferView":77,
			"componentType":5123,
			"count":1680,
			"type":"SCALAR"
		},
		{
			"bufferView":78,
			"componentType":5126,
			"count":73,
			"max":[
				0.1910937875509262,
				0.8282946944236755,
				-0.02288353256881237
			],
			"min":[
				0.14231142401695251,
				0.7795122861862183,
				-0.032504331320524216
			],
			"type":"VEC3"
		},
		{
			"bufferView":79,
			"componentType":5126,
			"count":73,
			"type":"VEC3"
		},
		{
			"bufferView":80,
			"componentType":5126,
			"count":73,
			"type":"VEC2"
		},
		{
			"bufferView":81,
			"componentType":5126,
			"count":310,
			"max":[
				0.2016243040561676,
				0.8388252258300781,
				-0.03291251137852669
			],
			"min":[
				0.13178083300590515,
				0.7689816951751709,
				-0.03291859105229378
			],
			"type":"VEC3"
		},
		{
			"bufferView":82,
			"componentType":5126,
			"count":310,
			"type":"VEC3"
		},
		{
			"bufferView":83,
			"componentType":5126,
			"count":310,
			"type":"VEC2"
		},
		{
			"bufferView":84,
			"componentType":5123,
			"count":762,
			"type":"SCALAR"
		},
		{
			"bufferView":85,
			"componentType":5126,
			"count":9037,
			"max":[
				0.20244674384593964,
				0.8396475911140442,
				-0.027309762313961983
			],
			"min":[
				0.13095848262310028,
				0.7681593894958496,
				-0.03334920480847359
			],
			"type":"VEC3"
		},
		{
			"bufferView":86,
			"componentType":5126,
			"count":9037,
			"type":"VEC3"
		},
		{
			"bufferView":87,
			"componentType":5126,
			"count":9037,
			"type":"VEC2"
		},
		{
			"bufferView":88,
			"componentType":5123,
			"count":49899,
			"type":"SCALAR"
		},
		{
			"bufferView":89,
			"componentType":5126,
			"count":566,
			"max":[
				0.2085367888212204,
				0.845737636089325,
				-0.022680016234517097
			],
			"min":[
				0.12486842274665833,
				0.7620692849159241,
				-0.032912541180849075
			],
			"type":"VEC3"
		},
		{
			"bufferView":90,
			"componentType":5126,
			"count":566,
			"type":"VEC3"
		},
		{
			"bufferView":91,
			"componentType":5126,
			"count":566,
			"type":"VEC2"
		},
		{
			"bufferView":92,
			"componentType":5123,
			"count":1380,
			"type":"SCALAR"
		},
		{
			"bufferView":93,
			"componentType":5126,
			"count":64,
			"max":[
				0.10851114243268967,
				0.8928302526473999,
				-0.03250427171587944
			],
			"min":[
				0.03786150738596916,
				0.8221806287765503,
				-0.03250430151820183
			],
			"type":"VEC3"
		},
		{
			"bufferView":94,
			"componentType":5126,
			"count":64,
			"type":"VEC3"
		},
		{
			"bufferView":95,
			"componentType":5126,
			"count":64,
			"type":"VEC2"
		},
		{
			"bufferView":96,
			"componentType":5126,
			"count":337,
			"max":[
				0.08534398674964905,
				0.8695089221000671,
				-0.022883502766489983
			],
			"min":[
				0.06123346835374832,
				0.8454577922821045,
				-0.03118327632546425
			],
			"type":"VEC3"
		},
		{
			"bufferView":97,
			"componentType":5126,
			"count":337,
			"type":"VEC3"
		},
		{
			"bufferView":98,
			"componentType":5126,
			"count":337,
			"type":"VEC2"
		},
		{
			"bufferView":99,
			"componentType":5123,
			"count":1680,
			"type":"SCALAR"
		},
		{
			"bufferView":100,
			"componentType":5126,
			"count":73,
			"max":[
				0.09757749736309052,
				0.8818966746330261,
				-0.022883502766489983
			],
			"min":[
				0.04879513382911682,
				0.8331142663955688,
				-0.03250430151820183
			],
			"type":"VEC3"
		},
		{
			"bufferView":101,
			"componentType":5126,
			"count":73,
			"type":"VEC3"
		},
		{
			"bufferView":102,
			"componentType":5126,
			"count":73,
			"type":"VEC2"
		},
		{
			"bufferView":103,
			"componentType":5126,
			"count":317,
			"max":[
				0.1081080213189125,
				0.8924272060394287,
				-0.0329124815762043
			],
			"min":[
				0.03826456144452095,
				0.8225836753845215,
				-0.03291856124997139
			],
			"type":"VEC3"
		},
		{
			"bufferView":104,
			"componentType":5126,
			"count":317,
			"type":"VEC3"
		},
		{
			"bufferView":105,
			"componentType":5126,
			"count":317,
			"type":"VEC2"
		},
		{
			"bufferView":106,
			"componentType":5123,
			"count":762,
			"type":"SCALAR"
		},
		{
			"bufferView":107,
			"componentType":5126,
			"count":9038,
			"max":[
				0.10893044620752335,
				0.8932495713233948,
				-0.027309732511639595
			],
			"min":[
				0.03744220361113548,
				0.8217613697052002,
				-0.0333491750061512
			],
			"type":"VEC3"
		},
		{
			"bufferView":108,
			"componentType":5126,
			"count":9038,
			"type":"VEC3"
		},
		{
			"bufferView":109,
			"componentType":5126,
			"count":9038,
			"type":"VEC2"
		},
		{
			"bufferView":110,
			"componentType":5123,
			"count":49902,
			"type":"SCALAR"
		},
		{
			"bufferView":111,
			"componentType":5126,
			"count":564,
			"max":[
				0.1150204986333847,
				0.8993396162986755,
				-0.02267998643219471
			],
			"min":[
				0.031352151185274124,
				0.8156712651252747,
				-0.03291251137852669
			],
			"type":"VEC3"
		},
		{
			"bufferView":112,
			"componentType":5126,
			"count":564,
			"type":"VEC3"
		},
		{
			"bufferView":113,
			"componentType":5126,
			"count":564,
			"type":"VEC2"
		},
		{
			"bufferView":114,
			"componentType":5123,
			"count":1380,
			"type":"SCALAR"
		},
		{
			"bufferView":115,
			"componentType":5126,
			"count":306,
			"max":[
				0.21640117466449738,
				0.9560821056365967,
				-0.02831064723432064
			],
			"min":[
				0.024958664551377296,
				0.7534050941467285,
				-0.029477965086698532
			],
			"type":"VEC3"
		},
		{
			"bufferView":116,
			"componentType":5126,
			"count":306,
			"type":"VEC3"
		},
		{
			"bufferView":117,
			"componentType":5126,
			"count":306,
			"type":"VEC2"
		},
		{
			"bufferView":118,
			"componentType":5123,
			"count":873,
			"type":"SCALAR"
		},
		{
			"bufferView":119,
			"componentType":5126,
			"count":439,
			"max":[
				0.046909838914871216,
				0.8122291564941406,
				-0.024628089740872383
			],
			"min":[
				0.04034506529569626,
				0.8056221008300781,
				-0.02947789803147316
			],
			"type":"VEC3"
		},
		{
			"bufferView":120,
			"componentType":5126,
			"count":439,
			"type":"VEC3"
		},
		{
			"bufferView":121,
			"componentType":5126,
			"count":439,
			"type":"VEC2"
		},
		{
			"bufferView":122,
			"componentType":5123,
			"count":1818,
			"type":"SCALAR"
		},
		{
			"bufferView":123,
			"componentType":5126,
			"count":551,
			"max":[
				0.09303724020719528,
				0.9460501670837402,
				-0.022711755707859993
			],
			"min":[
				0.056614749133586884,
				0.9096276760101318,
				-0.028235817328095436
			],
			"type":"VEC3"
		},
		{
			"bufferView":124,
			"componentType":5126,
			"count":551,
			"type":"VEC3"
		},
		{
			"bufferView":125,
			"componentType":5126,
			"count":551,
			"type":"VEC2"
		},
		{
			"bufferView":126,
			"componentType":5123,
			"count":2112,
			"type":"SCALAR"
		},
		{
			"bufferView":127,
			"componentType":5126,
			"count":32,
			"max":[
				0.08984877169132233,
				0.9428616762161255,
				-0.0263760257512331
			],
			"min":[
				0.05980321764945984,
				0.9128161072731018,
				-0.026376036927103996
			],
			"type":"VEC3"
		},
		{
			"bufferView":128,
			"componentType":5126,
			"count":32,
			"type":"VEC3"
		},
		{
			"bufferView":129,
			"componentType":5126,
			"count":32,
			"type":"VEC2"
		},
		{
			"bufferView":130,
			"componentType":5123,
			"count":90,
			"type":"SCALAR"
		},
		{
			"bufferView":131,
			"componentType":5126,
			"count":1284,
			"max":[
				0.2423488050699234,
				0.9810208678245544,
				0.02204919420182705
			],
			"min":[
				-0.22592586278915405,
				0.004393339157104492,
				-0.029477965086698532
			],
			"type":"VEC3"
		},
		{
			"bufferView":132,
			"componentType":5126,
			"count":1284,
			"type":"VEC3"
		},
		{
			"bufferView":133,
			"componentType":5126,
			"count":1284,
			"type":"VEC2"
		},
		{
			"bufferView":134,
			"componentType":5123,
			"count":6990,
			"type":"SCALAR"
		},
		{
			"bufferView":135,
			"componentType":5126,
			"count":128,
			"max":[
				0.09411591291427612,
				0.8069319128990173,
				-0.0225041676312685
			],
			"min":[
				0.05553799122571945,
				0.7683539986610413,
				-0.022782882675528526
			],
			"type":"VEC3"
		},
		{
			"bufferView":136,
			"componentType":5126,
			"count":128,
			"type":"VEC3"
		},
		{
			"bufferView":137,
			"componentType":5126,
			"count":128,
			"type":"VEC2"
		},
		{
			"bufferView":138,
			"componentType":5123,
			"count":372,
			"type":"SCALAR"
		},
		{
			"bufferView":139,
			"componentType":5126,
			"count":151,
			"max":[
				0.22940316796302795,
				0.9681455492973328,
				0.02213745377957821
			],
			"min":[
				-0.21298019587993622,
				0.017338961362838745,
				0.022049030289053917
			],
			"type":"VEC3"
		},
		{
			"bufferView":140,
			"componentType":5126,
			"count":151,
			"type":"VEC3"
		},
		{
			"bufferView":141,
			"componentType":5126,
			"count":151,
			"type":"VEC2"
		},
		{
			"bufferView":142,
			"componentType":5123,
			"count":369,
			"type":"SCALAR"
		},
		{
			"bufferView":143,
			"componentType":5126,
			"count":180,
			"max":[
				-0.2269597202539444,
				0.806888222694397,
				0.005491167306900024
			],
			"min":[
				-0.23087674379348755,
				0.7767964601516724,
				-0.002762506017461419
			],
			"type":"VEC3"
		},
		{
			"bufferView":144,
			"componentType":5126,
			"count":180,
			"type":"VEC3"
		},
		{
			"bufferView":145,
			"componentType":5126,
			"count":180,
			"type":"VEC2"
		},
		{
			"bufferView":146,
			"componentType":5123,
			"count":528,
			"type":"SCALAR"
		},
		{
			"bufferView":147,
			"componentType":5126,
			"count":98,
			"max":[
				0.028385184705257416,
				0.02383124828338623,
				0.00519849918782711
			],
			"min":[
				-0.01196262426674366,
				0.0011771321296691895,
				-0.004290512762963772
			],
			"type":"VEC3"
		},
		{
			"bufferView":148,
			"componentType":5126,
			"count":98,
			"type":"VEC3"
		},
		{
			"bufferView":149,
			"componentType":5126,
			"count":98,
			"type":"VEC2"
		},
		{
			"bufferView":150,
			"componentType":5123,
			"count":264,
			"type":"SCALAR"
		},
		{
			"bufferView":151,
			"componentType":5126,
			"count":757,
			"max":[
				0.031723715364933014,
				0.023931235074996948,
				0.007922215387225151
			],
			"min":[
				-0.015301188454031944,
				1.5676021575927734e-05,
				-0.007014226168394089
			],
			"type":"VEC3"
		},
		{
			"bufferView":152,
			"componentType":5126,
			"count":757,
			"type":"VEC3"
		},
		{
			"bufferView":153,
			"componentType":5126,
			"count":757,
			"type":"VEC2"
		},
		{
			"bufferView":154,
			"componentType":5123,
			"count":1620,
			"type":"SCALAR"
		},
		{
			"bufferView":155,
			"componentType":5126,
			"count":180,
			"max":[
				0.24901537597179413,
				0.7223002910614014,
				0.008302128873765469
			],
			"min":[
				0.2461448609828949,
				0.5980139970779419,
				-0.009706648997962475
			],
			"type":"VEC3"
		},
		{
			"bufferView":156,
			"componentType":5126,
			"count":180,
			"type":"VEC3"
		},
		{
			"bufferView":157,
			"componentType":5126,
			"count":180,
			"type":"VEC2"
		},
		{
			"bufferView":158,
			"componentType":5123,
			"count":528,
			"type":"SCALAR"
		},
		{
			"bufferView":159,
			"componentType":5126,
			"count":32,
			"max":[
				-0.22948049008846283,
				0.16768226027488708,
				0.0032344197388738394
			],
			"min":[
				-0.22948049008846283,
				0.16103434562683105,
				-0.003413480008020997
			],
			"type":"VEC3"
		},
		{
			"bufferView":160,
			"componentType":5126,
			"count":32,
			"type":"VEC3"
		},
		{
			"bufferView":161,
			"componentType":5126,
			"count":32,
			"type":"VEC2"
		},
		{
			"bufferView":162,
			"componentType":5123,
			"count":90,
			"type":"SCALAR"
		},
		{
			"bufferView":163,
			"componentType":5126,
			"count":276,
			"max":[
				-0.2275894433259964,
				0.24735164642333984,
				0.00627090223133564
			],
			"min":[
				-0.22993077337741852,
				0.15734466910362244,
				-0.006592962890863419
			],
			"type":"VEC3"
		},
		{
			"bufferView":164,
			"componentType":5126,
			"count":276,
			"type":"VEC3"
		},
		{
			"bufferView":165,
			"componentType":5126,
			"count":276,
			"type":"VEC2"
		},
		{
			"bufferView":166,
			"componentType":5123,
			"count":1182,
			"type":"SCALAR"
		},
		{
			"bufferView":167,
			"componentType":5126,
			"count":360,
			"max":[
				-0.22965693473815918,
				0.7400458455085754,
				0.00816901121288538
			],
			"min":[
				-0.23227153718471527,
				0.5772786140441895,
				-0.009573218412697315
			],
			"type":"VEC3"
		},
		{
			"bufferView":168,
			"componentType":5126,
			"count":360,
			"type":"VEC3"
		},
		{
			"bufferView":169,
			"componentType":5126,
			"count":360,
			"type":"VEC2"
		},
		{
			"bufferView":170,
			"componentType":5123,
			"count":1056,
			"type":"SCALAR"
		}
	],
	"bufferViews":[
		{
			"buffer":0,
			"byteLength":3624,
			"byteOffset":0,
			"target":34962
		},
		{
			"buffer":0,
			"byteLength":3624,
			"byteOffset":3624,
			"target":34962
		},
		{
			"buffer":0,
			"byteLength":2416,
			"byteOffset":7248,
			"target":34962
		},
		{
			"buffer":0,
			"byteLength":1836,
			"byteOffset":9664,
			"target":34963
		},
		{
			"buffer":0,
			"byteLength":31992,
			"byteOffset":11500,
			"target":34962
		},
		{
			"buffer":0,
			"byteLength":31992,
			"byteOffset":43492,
			"target":34962
		},
		{
			"buffer":0,
			"byteLength":21328,
			"byteOffset":75484,
			"target":34962
		},
		{
			"buffer":0,
			"byteLength":21150,
			"byteOffset":96812,
			"target":34963
		},
		{
			"buffer":0,
			"byteLength":17256,
			"byteOffset":117964,
			"target":34962
		},
		{
			"buffer":0,
			"byteLength":17256,
			"byteOffset":135220,
			"target":34962
		},
		{
			"buffer":0,
			"byteLength":11504,
			"byteOffset":152476,
			"target":34962
		},
		{
			"buffer":0,
			"byteLength":8280,
			"byteOffset":163980,
			"target":34963
		},
		{
			"buffer":0,
			"byteLength":3168,
			"byteOffset":172260,
			"target":34962
		},
		{
			"buffer":0,
			"byteLength":3168,
			"byteOffset":175428,
			"target":34962
		},
		{
			"buffer":0,
			"byteLength":2112,
			"byteOffset":178596,
			"target":34962
		},
		{
			"buffer":0,
			"byteLength":1488,
			"byteOffset":180708,
			"target":34963
		},
		{
			"buffer":0,
			"byteLength":41136,
			"byteOffset":182196,
			"target":34962
		},
		{
			"buffer":0,
			"byteLength":41136,
			"byteOffset":223332,
			"target":34962
		},
		{
			"buffer":0,
			"byteLength":35280,
			"byteOffset":264468,
			"target":34963
		},
		{
			"buffer":0,
			"byteLength":6732,
			"byteOffset":299748,
			"target":34962
		},
		{
			"buffer":0,
			"byteLength":6732,
			"byteOffset":306480,
			"target":34962
		},
		{
			"buffer":0,
			"byteLength":4488,
			"byteOffset":313212,
			"target":34962
		},
		{
			"buffer":0,
			"byteLength":3372,
			"byteOffset":317700,
			"target":34963
		},
		{
			"buffer":0,
			"byteLength":3468,
			"byteOffset":321072,
			"target":34962
		},
		{
			"buffer":0,
			"byteLength":3468,
			"byteOffset":324540,
			"target":34962
		},
		{
			"buffer":0,
			"byteLength":2312,
			"byteOffset":328008,
			"target":34962
		},
		{
			"buffer":0,
			"byteLength":3060,
			"byteOffset":330320,
			"target":34963
		},
		{
			"buffer":0,
			"byteLength":768,
			"byteOffset":333380,
			"target":34962
		},
		{
			"buffer":0,
			"byteLength":768,
			"byteOffset":334148,
			"target":34962
		},
		{
			"buffer":0,
			"byteLength":512,
			"byteOffset":334916,
			"target":34962
		},
		{
			"buffer":0,
			"byteLength":384,
			"byteOffset":335428,
			"target":34963
		},
		{
			"buffer":0,
			"byteLength":384,
			"byteOffset":335812,
			"target":34962
		},
		{
			"buffer":0,
			"byteLength":384,
			"byteOffset":336196,
			"target":34962
		},
		{
			"buffer":0,
			"byteLength":256,
			"byteOffset":336580,
			"target":34962
		},
		{
			"buffer":0,
			"byteLength":180,
			"byteOffset":336836,
			"target":34963
		},
		{
			"buffer":0,
			"byteLength":4608,
			"byteOffset":337016,
			"target":34962
		},
		{
			"buffer":0,
			"byteLength":4608,
			"byteOffset":341624,
			"target":34962
		},
		{
			"buffer":0,
			"byteLength":3072,
			"byteOffset":346232,
			"target":34962
		},
		{
			"buffer":0,
			"byteLength":2232,
			"byteOffset":349304,
			"target":34963
		},
		{
			"buffer":0,
			"byteLength":1440,
			"byteOffset":351536,
			"target":34962
		},
		{
			"buffer":0,
			"byteLength":1440,
			"byteOffset":352976,
			"target":34962
		},
		{
			"buffer":0,
			"byteLength":960,
			"byteOffset":354416,
			"target":34962
		},
		{
			"buffer":0,
			"byteLength":720,
			"byteOffset":355376,
			"target":34963
		},
		{
			"buffer":0,
			"byteLength":360,
			"byteOffset":356096,
			"target":34962
		},
		{
			"buffer":0,
			"byteLength":360,
			"byteOffset":356456,
			"target":34962
		},
		{
			"buffer":0,
			"byteLength":240,
			"byteOffset":356816,
			"target":34962
		},
		{
			"buffer":0,
			"byteLength":168,
			"byteOffset":357056,
			"target":34963
		},
		{
			"buffer":0,
			"byteLength":768,
			"byteOffset":357224,
			"target":34962
		},
		{
			"buffer":0,
			"byteLength":768,
			"byteOffset":357992,
			"target":34962
		},
		{
			"buffer":0,
			"byteLength":512,
			"byteOffset":358760,
			"target":34962
		},
		{
			"buffer":0,
			"byteLength":384,
			"byteOffset":359272,
			"target":34963
		},
		{
			"buffer":0,
			"byteLength":4044,
			"byteOffset":359656,
			"target":34962
		},
		{
			"buffer":0,
			"byteLength":4044,
			"byteOffset":363700,
			"target":34962
		},
		{
			"buffer":0,
			"byteLength":2696,
			"byteOffset":367744,
			"target":34962
		},
		{
			"buffer":0,
			"byteLength":3360,
			"byteOffset":370440,
			"target":34963
		},
		{
			"buffer":0,
			"byteLength":876,
			"byteOffset":373800,
			"target":34962
		},
		{
			"buffer":0,
			"byteLength":876,
			"byteOffset":374676,
			"target":34962
		},
		{
			"buffer":0,
			"byteLength":584,
			"byteOffset":375552,
			"target":34962
		},
		{
			"buffer":0,
			"byteLength":456,
			"byteOffset":376136,
			"target":34963
		},
		{
			"buffer":0,
			"byteLength":3780,
			"byteOffset":376592,
			"target":34962
		},
		{
			"buffer":0,
			"byteLength":3780,
			"byteOffset":380372,
			"target":34962
		},
		{
			"buffer":0,
			"byteLength":2520,
			"byteOffset":384152,
			"target":34962
		},
		{
			"buffer":0,
			"byteLength":1524,
			"byteOffset":386672,
			"target":34963
		},
		{
			"buffer":0,
			"byteLength":108444,
			"byteOffset":388196,
			"target":34962
		},
		{
			"buffer":0,
			"byteLength":108444,
			"byteOffset":496640,
			"target":34962
		},
		{
			"buffer":0,
			"byteLength":72296,
			"byteOffset":605084,
			"target":34962
		},
		{
			"buffer":0,
			"byteLength":99798,
			"byteOffset":677380,
			"target":34963
		},
		{
			"buffer":0,
			"byteLength":6768,
			"byteOffset":777180,
			"target":34962
		},
		{
			"buffer":0,
			"byteLength":6768,
			"byteOffset":783948,
			"target":34962
		},
		{
			"buffer":0,
			"byteLength":4512,
			"byteOffset":790716,
			"target":34962
		},
		{
			"buffer":0,
			"byteLength":2760,
			"byteOffset":795228,
			"target":34963
		},
		{
			"buffer":0,
			"byteLength":768,
			"byteOffset":797988,
			"target":34962
		},
		{
			"buffer":0,
			"byteLength":768,
			"byteOffset":798756,
			"target":34962
		},
		{
			"buffer":0,
			"byteLength":512,
			"byteOffset":799524,
			"target":34962
		},
		{
			"buffer":0,
			"byteLength":4044,
			"byteOffset":800036,
			"target":34962
		},
		{
			"buffer":0,
			"byteLength":4044,
			"byteOffset":804080,
			"target":34962
		},
		{
			"buffer":0,
			"byteLength":2696,
			"byteOffset":808124,
			"target":34962
		},
		{
			"buffer":0,
			"byteLength":3360,
			"byteOffset":810820,
			"target":34963
		},
		{
			"buffer":0,
			"byteLength":876,
			"byteOffset":814180,
			"target":34962
		},
		{
			"buffer":0,
			"byteLength":876,
			"byteOffset":815056,
			"target":34962
		},
		{
			"buffer":0,
			"byteLength":584,
			"byteOffset":815932,
			"target":34962
		},
		{
			"buffer":0,
			"byteLength":3720,
			"byteOffset":816516,
			"target":34962
		},
		{
			"buffer":0,
			"byteLength":3720,
			"byteOffset":820236,
			"target":34962
		},
		{
			"buffer":0,
			"byteLength":2480,
			"byteOffset":823956,
			"target":34962
		},
		{
			"buffer":0,
			"byteLength":1524,
			"byteOffset":826436,
			"target":34963
		},
		{
			"buffer":0,
			"byteLength":108444,
			"byteOffset":827960,
			"target":34962
		},
		{
			"buffer":0,
			"byteLength":108444,
			"byteOffset":936404,
			"target":34962
		},
		{
			"buffer":0,
			"byteLength":72296,
			"byteOffset":1044848,
			"target":34962
		},
		{
			"buffer":0,
			"byteLength":99798,
			"byteOffset":1117144,
			"target":34963
		},
		{
			"buffer":0,
			"byteLength":6792,
			"byteOffset":1216944,
			"target":34962
		},
		{
			"buffer":0,
			"byteLength":6792,
			"byteOffset":1223736,
			"target":34962
		},
		{
			"buffer":0,
			"byteLength":4528,
			"byteOffset":1230528,
			"target":34962
		},
		{
			"buffer":0,
			"byteLength":2760,
			"byteOffset":1235056,
			"target":34963
		},
		{
			"buffer":0,
			"byteLength":768,
			"byteOffset":1237816,
			"target":34962
		},
		{
			"buffer":0,
			"byteLength":768,
			"byteOffset":1238584,
			"target":34962
		},
		{
			"buffer":0,
			"byteLength":512,
			"byteOffset":1239352,
			"target":34962
		},
		{
			"buffer":0,
			"byteLength":4044,
			"byteOffset":1239864,
			"target":34962
		},
		{
			"buffer":0,
			"byteLength":4044,
			"byteOffset":1243908,
			"target":34962
		},
		{
			"buffer":0,
			"byteLength":2696,
			"byteOffset":1247952,
			"target":34962
		},
		{
			"buffer":0,
			"byteLength":3360,
			"byteOffset":1250648,
			"target":34963
		},
		{
			"buffer":0,
			"byteLength":876,
			"byteOffset":1254008,
			"target":34962
		},
		{
			"buffer":0,
			"byteLength":876,
			"byteOffset":1254884,
			"target":34962
		},
		{
			"buffer":0,
			"byteLength":584,
			"byteOffset":1255760,
			"target":34962
		},
		{
			"buffer":0,
			"byteLength":3804,
			"byteOffset":1256344,
			"target":34962
		},
		{
			"buffer":0,
			"byteLength":3804,
			"byteOffset":1260148,
			"target":34962
		},
		{
			"buffer":0,
			"byteLength":2536,
			"byteOffset":1263952,
			"target":34962
		},
		{
			"buffer":0,
			"byteLength":1524,
			"byteOffset":1266488,
			"target":34963
		},
		{
			"buffer":0,
			"byteLength":108456,
			"byteOffset":1268012,
			"target":34962
		},
		{
			"buffer":0,
			"byteLength":108456,
			"byteOffset":1376468,
			"target":34962
		},
		{
			"buffer":0,
			"byteLength":72304,
			"byteOffset":1484924,
			"target":34962
		},
		{
			"buffer":0,
			"byteLength":99804,
			"byteOffset":1557228,
			"target":34963
		},
		{
			"buffer":0,
			"byteLength":6768,
			"byteOffset":1657032,
			"target":34962
		},
		{
			"buffer":0,
			"byteLength":6768,
			"byteOffset":1663800,
			"target":34962
		},
		{
			"buffer":0,
			"byteLength":4512,
			"byteOffset":1670568,
			"target":34962
		},
		{
			"buffer":0,
			"byteLength":2760,
			"byteOffset":1675080,
			"target":34963
		},
		{
			"buffer":0,
			"byteLength":3672,
			"byteOffset":1677840,
			"target":34962
		},
		{
			"buffer":0,
			"byteLength":3672,
			"byteOffset":1681512,
			"target":34962
		},
		{
			"buffer":0,
			"byteLength":2448,
			"byteOffset":1685184,
			"target":34962
		},
		{
			"buffer":0,
			"byteLength":1746,
			"byteOffset":1687632,
			"target":34963
		},
		{
			"buffer":0,
			"byteLength":5268,
			"byteOffset":1689380,
			"target":34962
		},
		{
			"buffer":0,
			"byteLength":5268,
			"byteOffset":1694648,
			"target":34962
		},
		{
			"buffer":0,
			"byteLength":3512,
			"byteOffset":1699916,
			"target":34962
		},
		{
			"buffer":0,
			"byteLength":3636,
			"byteOffset":1703428,
			"target":34963
		},
		{
			"buffer":0,
			"byteLength":6612,
			"byteOffset":1707064,
			"target":34962
		},
		{
			"buffer":0,
			"byteLength":6612,
			"byteOffset":1713676,
			"target":34962
		},
		{
			"buffer":0,
			"byteLength":4408,
			"byteOffset":1720288,
			"target":34962
		},
		{
			"buffer":0,
			"byteLength":4224,
			"byteOffset":1724696,
			"target":34963
		},
		{
			"buffer":0,
			"byteLength":384,
			"byteOffset":1728920,
			"target":34962
		},
		{
			"buffer":0,
			"byteLength":384,
			"byteOffset":1729304,
			"target":34962
		},
		{
			"buffer":0,
			"byteLength":256,
			"byteOffset":1729688,
			"target":34962
		},
		{
			"buffer":0,
			"byteLength":180,
			"byteOffset":1729944,
			"target":34963
		},
		{
			"buffer":0,
			"byteLength":15408,
			"byteOffset":1730124,
			"target":34962
		},
		{
			"buffer":0,
			"byteLength":15408,
			"byteOffset":1745532,
			"target":34962
		},
		{
			"buffer":0,
			"byteLength":10272,
			"byteOffset":1760940,
			"target":34962
		},
		{
			"buffer":0,
			"byteLength":13980,
			"byteOffset":1771212,
			"target":34963
		},
		{
			"buffer":0,
			"byteLength":1536,
			"byteOffset":1785192,
			"target":34962
		},
		{
			"buffer":0,
			"byteLength":1536,
			"byteOffset":1786728,
			"target":34962
		},
		{
			"buffer":0,
			"byteLength":1024,
			"byteOffset":1788264,
			"target":34962
		},
		{
			"buffer":0,
			"byteLength":744,
			"byteOffset":1789288,
			"target":34963
		},
		{
			"buffer":0,
			"byteLength":1812,
			"byteOffset":1790032,
			"target":34962
		},
		{
			"buffer":0,
			"byteLength":1812,
			"byteOffset":1791844,
			"target":34962
		},
		{
			"buffer":0,
			"byteLength":1208,
			"byteOffset":1793656,
			"target":34962
		},
		{
			"buffer":0,
			"byteLength":738,
			"byteOffset":1794864,
			"target":34963
		},
		{
			"buffer":0,
			"byteLength":2160,
			"byteOffset":1795604,
			"target":34962
		},
		{
			"buffer":0,
			"byteLength":2160,
			"byteOffset":1797764,
			"target":34962
		},
		{
			"buffer":0,
			"byteLength":1440,
			"byteOffset":1799924,
			"target":34962
		},
		{
			"buffer":0,
			"byteLength":1056,
			"byteOffset":1801364,
			"target":34963
		},
		{
			"buffer":0,
			"byteLength":1176,
			"byteOffset":1802420,
			"target":34962
		},
		{
			"buffer":0,
			"byteLength":1176,
			"byteOffset":1803596,
			"target":34962
		},
		{
			"buffer":0,
			"byteLength":784,
			"byteOffset":1804772,
			"target":34962
		},
		{
			"buffer":0,
			"byteLength":528,
			"byteOffset":1805556,
			"target":34963
		},
		{
			"buffer":0,
			"byteLength":9084,
			"byteOffset":1806084,
			"target":34962
		},
		{
			"buffer":0,
			"byteLength":9084,
			"byteOffset":1815168,
			"target":34962
		},
		{
			"buffer":0,
			"byteLength":6056,
			"byteOffset":1824252,
			"target":34962
		},
		{
			"buffer":0,
			"byteLength":3240,
			"byteOffset":1830308,
			"target":34963
		},
		{
			"buffer":0,
			"byteLength":2160,
			"byteOffset":1833548,
			"target":34962
		},
		{
			"buffer":0,
			"byteLength":2160,
			"byteOffset":1835708,
			"target":34962
		},
		{
			"buffer":0,
			"byteLength":1440,
			"byteOffset":1837868,
			"target":34962
		},
		{
			"buffer":0,
			"byteLength":1056,
			"byteOffset":1839308,
			"target":34963
		},
		{
			"buffer":0,
			"byteLength":384,
			"byteOffset":1840364,
			"target":34962
		},
		{
			"buffer":0,
			"byteLength":384,
			"byteOffset":1840748,
			"target":34962
		},
		{
			"buffer":0,
			"byteLength":256,
			"byteOffset":1841132,
			"target":34962
		},
		{
			"buffer":0,
			"byteLength":180,
			"byteOffset":1841388,
			"target":34963
		},
		{
			"buffer":0,
			"byteLength":3312,
			"byteOffset":1841568,
			"target":34962
		},
		{
			"buffer":0,
			"byteLength":3312,
			"byteOffset":1844880,
			"target":34962
		},
		{
			"buffer":0,
			"byteLength":2208,
			"byteOffset":1848192,
			"target":34962
		},
		{
			"buffer":0,
			"byteLength":2364,
			"byteOffset":1850400,
			"target":34963
		},
		{
			"buffer":0,
			"byteLength":4320,
			"byteOffset":1852764,
			"target":34962
		},
		{
			"buffer":0,
			"byteLength":4320,
			"byteOffset":1857084,
			"target":34962
		},
		{
			"buffer":0,
			"byteLength":2880,
			"byteOffset":1861404,
			"target":34962
		},
		{
			"buffer":0,
			"byteLength":2112,
			"byteOffset":1864284,
			"target":34963
		}
	],
	"samplers":[
		{
			"magFilter":9729,
			"minFilter":9987
		}
	],
	"buffers":[
		{
			"byteLength":1866396,
			"uri":"scene.bin"
		}
	]
}
